<svg version="1.1" id="Layer_1" xmlns="http://www.w3.org/2000/svg" x="0" y="0" viewBox="0 0 512 512" style="enable-background:new 0 0 512 512" xml:space="preserve"><style>.st0{fill:#28166f}.st1{fill:#f60}</style><g id="XMLID_1_"><path id="XMLID_3_" class="st0" d="m336.4 388.16-1.54-1.26.42-.42.42-.7.14-.28c0-.14.14-.28.14-.56s0-.56-.14-.98c-.14-.42-.42-.7-.84-1.12l-.42-.42-.42-.28-.84-.7c-.28-.14-.42-.42-.7-.56-.28-.14-.42-.28-.56-.42l-.7-.42h-.56l-.7.14-.56.42c-.14.28-.42.42-.56.56l-.28.28-1.54-1.26c.7-.84 1.4-1.4 1.96-1.68.7-.28 1.26-.42 1.96-.28.7.14 1.26.42 1.96.84.42.28.84.56.98.7.14.14.56.42.98.84 1.12.98 1.96 1.82 2.38 2.52.28.42.42.84.56 1.12.14.42.14.7.14 1.12l-.28.84-.28.7-1.12 1.26z"/><path id="XMLID_28_" class="st0" d="M286.6 508.93h-73.08v-2.95h73.08c2.81 0 1.82.42 2.95 1.96-1.13.57-.99.99-2.95.99zm-4.07-6.03h-64.11v-4.07h67.19c-.27 2.81.01 4.07-3.08 4.07zm-85.14-7.99v-1.96h108.15v1.96H197.39zm100.15-10.1c3.09 0 2.81 1.12 2.95 4.07h-96.23v-4.07h93.28zm-121.2-2.95c-2.81 0-1.82-.28-2.95-1.96h156.27c-1.12 1.54-.14 1.96-2.95 1.96H176.34zm148.27-10.1v4.07h-146.3v-4.07h146.3zm-174.36-2.94v-1.96h202.42v1.96H150.25zm200.46-6.04H153.34v-2.95h197.37v2.95zm-228.51-7.01v-1.96h259.51v1.96H122.2zm3.08-6.03c-3.23 0-3.37-2.52-4.07-5.05h263.57c-.7 1.96-2.52 5.05-5.05 5.05H125.28zm272.56.98c0 3.09-1.12 2.81-4.07 2.95.56 2.24.28 2.95 2.95 2.95h.98c4.63 0 8-7.01 8-12.06 0-8.14-5.05-15.71-5.05-26.09v-1.96c0-2.67.42-2.81.98-5.05l13.61 7.72c.42 18.1.98 45.45-16.69 45.45h-4.07c-4.91 0-8.98-4.07-8.98-8.98v-4.07c0-2.81 3.51-5.05 6.03-5.05 2.66.26 6.31 1.24 6.31 4.19zm-295.56-39c.42 2.1.98 2.24.98 4.91v.98c0 10.66-5.05 18.66-5.05 27.07 0 6.87 4.63 8.84 8.98 11.08l4.35-2.67c-3.23-.7-5.33-1.12-5.33-4.35 0-1.82 3.65-2.95 6.03-2.95 5.47 0 5.19 2.52 7.01 6.03-1.12 4.63-2.38 11.08-8 11.08h-6.03c-10.24 0-16.97-14.17-16.97-25.11l.42-19.22 13.61-6.85zm30.02-13.04c7.72-5.05 14.73-11.36 18.24-20.9 2.67-7.29.7-29.18 8.84-29.18H345.8c7.29 0 5.33 21.88 8.42 29.74 3.51 8.84 10.52 15.71 17.67 20.48 1.68-1.12 1.82-2.1 4.07-1.96l7.01.42c2.1 3.51 8.98 9.68 8.98 12.62 0 3.09-2.67 6.03 1.96 6.03h2.95v6.03c0 9.26 4.07 12.34 4.07 23.99-4.91-3.37-8.84-4.07-16.97-4.07H108.17c-2.38 0-2.95 1.68-5.05 2.95 0-11.22 4.07-14.59 4.07-23.99v-6.03h6.03c-.28-4.07-.98-2.24-.98-6.03 0-2.38 8-8.14 8.98-12.06l7.01.14c2.24-.29 2.24.7 4.07 1.82zm282.51 15.99c-8.28-.7-11.36-6.59-13.05-14.03 3.79.98 10.95 10.8 13.05 14.03zm-313.37-14.73.84.7c-1.82 7.86-5.19 13.33-14.03 14.03l13.19-14.73zm-19.22-7.29c0-5.33 2.52-9.26 3.93-13.19 2.1-5.75.28-9.68 1.4-15.57 1.82-8.7 8.56-15.43 18.66-15.43 5.75 0 8.42 2.95 11.08 6.03l-2.95 10.8 1.12.7 18.1-8 .98 1.12-4.21-2.81-11.08 4.35c1.12-1.96 1.96-1.96 1.96-4.21v-2.95c0-3.23-.84-.7-1.96-5.05h5.05l-1.26 4.91c4.63-.98 7.01-3.93 11.22-3.93h6.03l10.94.56c-.98 3.79-3.51 23.71-4.49 25.95-4.07 9.4-9.12 10.94-13.47 17.53l-17.25-3.93.28-1.12c.56 2.24.98 2.24.98 5.05 0 8.56-8.84 6.73-8.98 16.97h-2.95c-.7-2.81-.98-1.68-.98-4.07 0-.7 4.35-10.66 5.05-12.06-13.19.28-14.87 11.5-23 16.97-1.12-4.77-4.07-9.26-4.07-15.01l-.13-3.61zm298.5-45.03h4.07c-.84 3.51-1.96 3.37-1.96 7.01 0 1.68 1.4 3.79 1.96 5.05-4.07-.98-5.05-2.95-8.98-2.95h-2.95c-2.81 0-1.82.28-2.95 1.96l.84-1.68 17.25 8.56c1.12-1.54 1.96-1.54 1.96-3.79 0-2.95-1.96-2.67-1.96-7.01 0-4.63 6.45-7.01 11.08-7.01 10.1 0 16.55 8 17.81 16.27 1.12 6.59-.7 8.98 1.54 15.43 1.54 4.35 3.65 7.29 3.65 12.34v6.03c0 3.79-2.81 11.36-4.07 14.03-7.86-5.19-9.96-15.99-22.02-16.97.56 6.17 4.07 8.42 4.07 13.05 0 2.67-1.4 2.95-2.95 4.07-.84-9.96-9.96-10.1-9.96-18.1 0-2.67.42-2.81.98-5.05l.28 1.26-17.25 4.07c-4.63-7.01-9.96-8.98-13.61-18.94-2.1-6.03-1.4-7.29-1.54-14.45-.14-6.87-1.82-7.01-3.09-11.92l.14-.98 27.91 5.05-.25-5.33zm36.05-3.09H94.14v-2.95h322.63v2.95zm-314.49-6.03c4.21-6.31 8.84-15.01 19.08-15.01h270.59c8.56 0 15.29 8.42 16.97 15.01H102.28zm289.53-17.95H122.2c-3.09 0-2.81-1.12-2.95-4.07h275.5c-.14 2.8.14 4.07-2.94 4.07zM257.56 142.12c13.33 0 23.15-4.07 32.4-8.7 12.06-6.03 14.73-13.05 22.72-18.38 0 41.1 73.08 53.3 73.08 116.29v2.95c0 14.17-8.84 35.63-14.87 44.19-4.77 6.87-22.72 25.95-32.26 25.95H173.4c-9.96 0-27.63-20.2-32.82-27.35-6.87-9.54-14.31-29.6-14.31-45.87 0-62.84 73.08-75.33 73.08-115.16 10.66 2.81 19.08 26.09 57.09 26.09l1.12-.01zm81.08-53.03c8.28 0 15.99 8.7 15.99 16.97v1.96c0 10.1-6.31 14.45-13.05 18.1 17.11 32.4 92.16 48.96 92.16 113.2v.98c0 46.71-43.48 63.12-45.03 69.16l8.14.98-.14 1.12c-2.67 1.26.84.98-2.95.98h-275.5c-1.96 0-1.82-.28-2.95-.98l-.14-1.12 9.12-1.26c-2.24-6.03-46.01-21.18-46.01-68.73 0-66.21 74.77-81.36 92.16-114.18-6.73-3.51-13.05-8-13.05-18.1v-1.96c0-8.84 7.86-16.97 16.97-16.97 9.96 0 20.06 11.92 20.06 22.02v.98c0 39.28-73.08 57.09-73.08 117.27v4.07c0 15.99 8.28 37.59 14.87 47.27 4.21 6.03 26.37 28.9 33.24 28.9h173.38c7.43 0 29.18-23.85 33.67-30.44 7.15-10.66 14.45-31.28 14.45-48.68v-4.07c0-55.13-73.08-76.59-73.08-112.22v-2.95c-.27-10.93 9.83-22.3 20.77-22.3zM188.41 71.98c0-35.91 29.04-68.17 64.11-68.17h11.08c31.98 0 60.18 33.95 60.18 69.16 0 33.39-30.86 65.09-64.11 65.09h-7.01c-33.53.13-64.25-32.27-64.25-66.08zM82.78 367.12c-.98 6.03-4.49 22.16-4.49 23.57v5.05c0 8.7 3.51 11.5 5.05 18.1l-5.19 3.65c2.95 1.68-.56 1.4 3.23 1.4h2.95v12.06c0 17.67 6.17 36.05 23 36.05h2.95c7.29 0 9.26-7.01 13.05-7.01h26.09l-2.52 10.94 28.62 1.54.84 1.68-5.47 4.49-.42 5.61c2.24.56 2.24.98 5.05.98h26.09c-.28 10.52-7.01.56-7.01 8v1.96c0 2.24.7 2.95 2.95 2.95h18.1v5.05c-2.95.28-5.05.7-5.05 4.07v.98c0 2.38 1.68 4.07 4.07 4.07h74.2c2.38 0 4.07-1.68 4.07-4.07v-.98c0-5.75-4.07.14-4.07-8.98h16.97c2.24 0 2.95-.7 2.95-2.95v-1.96c0-6.31-4.77 1.4-5.05-8h25.11c2.38 0 4.07-1.68 4.07-4.07v-.98c0-6.03-4.35.84-5.05-7.01l28.05-1.4-2.24-11.5h27.21c2.95 0 11.36 17.67 28.2 4.21 7.57-6.03 10.8-17.11 10.8-30.3V419.3l4.07-.84-1.68-2.52c-.42-8.42 4.63-12.91 4.63-20.62v-.98c0-7.57-4.49-11.92-5.05-23.99-.42-10.1-3.79-14.87-8-21.04 4.77 0 9.96-.42 9.96-5.05 0-4.91-4.35-2.81-8.14-5.89-2.24-1.96-3.93-4.77-5.75-7.29-2.95-4.07-11.08-9.54-11.22-14.87 2.24-.56 4.07-.98 4.07-4.07 0-5.05-1.68-3.51-2.95-7.01 18.1-9.54 38.01-33.53 38.01-61.16v-13.05c0-25.39-22.02-47.69-35.91-60.32-9.68-8.84-49.38-36.19-53.3-41.94 4.07-5.61 12.06-8.14 12.06-20.06v-4.07c0-9.68-10.52-21.04-20.06-21.04h-5.05c-5.05 0-5.33 1.68-9.96 1.96.56-2.24.98-2.24.98-5.05V63.42C326.6 33.68 291.39.3 261.51.3h-8.98c-33.24 0-67.19 32.96-67.19 66.07v12.06c0 3.51.7 3.93.98 7.01-4.91-.42-3.65-1.96-8-1.96h-8c-7.72 0-19.08 12.76-19.08 22.02v5.05c0 8.28 9.12 13.05 12.06 16.97-4.35 6.59-43.91 35.35-53.58 42.64-12.76 9.68-35.63 39.28-35.63 60.6v12.06c0 13.61 6.59 30.58 12.48 38.72 7.29 9.96 22.3 19.5 25.67 24.41-1.4 2.1-2.95 2.67-2.95 5.05v.98c0 3.09 1.68 3.37 4.07 4.07v5.05c-6.45.56-9.12 7.43-12.34 11.78-4.35 5.89-12.76 7.43-12.76 11.22 0 3.23 1.26 3.37 2.95 4.07-1.7 6.46-6.32 5.2-8.43 18.95z"/><path id="XMLID_55_" class="st0" d="M183.36 242.83c.56-2.24.28-2.95 2.95-2.95h1.96c2.67 0 2.81.42 5.05.98v1.96h-4.07v4.07c0 3.65-1.54 2.52-4.07 1.96.7-1.26 1.96-3.37 1.96-5.05.29-2.09-1.96-1.53-3.78-.97zm13.04-7.99v-11.08c6.45 1.68 4.07 13.75 18.1 14.03v6.03c0 6.87 2.81 7.57 3.93 11.92l-7.01 2.1c-.01-9.96-15.02-19.5-15.02-23zm113.2 14.03v1.96c0 6.17 2.81 8.98 5.05 13.05-.98 1.54-5.05 5.47-5.05 7.01 0 2.95 2.67 5.05 3.37 6.45l-4.49 4.91-7.01.42-.14-1.12-7.86 1.26c3.51-5.19 11.08-4.49 11.08-14.03 0-8.84-7.01-15.43-7.01-21.04v-7.01c0-3.23 9.12-13.05 13.05-13.05 4.49 0 6.59 1.68 7.01 6.03-4.77 1.41-8 9.12-8 15.16zm-122.17-20.06h6.03l-.14 1.54-4.91 2.24 3.93 1.12v1.96c-4.63.14-9.82 2.95-6.45-4.77l-1.68-4.49 7.15-1.68v1.96h-4.07l.14 2.12zm32.96-4.91c0-3.51 3.51-4.77 7.01-5.05v5.05c0 3.23-3.37 5.33-6.03 6.03-.56-2.24-.98-2.24-.98-5.05v-.98zm11.08-2.11c0-3.37 1.82-2.95 5.05-2.95-.98 4.07-2.67 5.33-5.05 8v-5.05zm-34.08-3.08v2.1l-16.97 2.24-4.92 2.95-.14 5.89c-1.54-1.68-1.96-1.68-1.96-5.05v-1.96c0-2.95 4.21-5.89 7.01-5.47l16.98-.7zm45.16-2.81c1.4 2.38.98-.28.98 1.96 0 1.96-1.4 3.23-1.96 6.03-1.54-1.12-1.96-.14-1.96-2.95l.14-3.79 2.8-1.25zm3.93.98c0-2.1.42-1.26.98-4.07 1.54.42 2.95.14 2.95 1.96 0 2.52-1.82 4.63-2.95 6.03-.56-2.79-.98-1.67-.98-3.92zm7.02-6.03c2.1-2.81-.7-2.52 4.07-2.95l-.84 7.01-3.23-4.06zm-22.03 0c0-3.09 1.68-3.37 4.07-4.07v2.95c0 2.81-2.24 3.93-4.07 5.05v-3.93zm-3.22-3.37c.14 5.05-.84 6.31-4.77 7.29l.98-5.05 3.79-2.24zm10.24 1.27c0-2.67 1.4-3.79 2.95-5.05 1.26 2.67.98-.84.98 2.95 0 2.67-1.4 3.79-2.95 5.05-1.26-2.53-.98.97-.98-2.95zm9.96 0c-2.24-.56-2.95-.28-2.95-2.95v-2.95c2.24.56 2.95.28 2.95 2.95v2.95zm14.02-2.95v4.07c-1.68-1.12-4.07-2.24-4.07-5.05 0-1.96.28-1.82.98-2.95 1.69.99 3.09 1.27 3.09 3.93zm-10.94-5.05c2.95 2.1 1.82-.14 1.96 5.05-2.94-2.1-1.82.14-1.96-5.05zm5.05 0h-2.1v-2.95l2.1 2.95zm9.96-.98v2.95c-3.09-.84-4.07-1.96-4.07-6.03 0-1.82 1.54-1.68 2.95-1.96.7 2.23 1.12 2.37 1.12 5.04zm-63.12-2.95v-1.96l14.03 1.26c-.98 1.12-.28 2.1-2.95 1.68l-11.08-.98zm21.04-3.08h4.91c2.81 0 2.38.84 2.95 2.95l-5.05-.7-1.82.7-.99-2.95zm6.03-2.95c-8.56-.14-12.2-3.51-18.24-5.05l1.12-2.95c6.31 3.37 9.26 4.21 17.11 6.03v1.97h.01zm53.02-11.08c1.82 3.37 5.75 5.61 11.08 5.33l22.02-2.38c13.47-1.54 18.1 7.15 18.1 20.06 3.79 5.75 8.98 10.94 8.98 21.04 0 13.05-8 23.99-8 30.02v5.05c0 2.24.84 2.24 1.96 4.07-2.38 3.65-6.03 4.77-6.03 11.08 0 4.49 4.07 3.51 7.01 5.05l-4.77 5.33.56.98-3.37-1.82-4.21 3.65-.42-2.1-7.72.84c1.26-4.63 8-8.56 8-15.01 0-8.42-4.49-18.1-5.61-26.51-.7-4.77 4.21-20.62-8.42-20.62-11.78 0-18.52 14.87-24.27 21.88-8.84 10.66-14.45 13.75-26.79 20.2-2.67-1.82-5.05-3.51-5.05-8v-.98c0-4.07 3.51-8.42 4.07-14.03h-1.96c-.56 6.31-6.03 8.7-6.03 15.99 0 1.96 1.4 3.23 1.96 6.03-2.38 3.51-7.01 6.17-7.01 12.06l.14 2.67 4.07 1.82-1.26-.14-5.19 6.87 1.12.14-8 .84-.14-2.38-7.86 2.38c1.4-6.03 15.01-9.54 15.01-21.04 0-3.65-6.03-8.28-6.03-14.03v-7.01c0-3.09.98-4.07 1.96-6.03-4.21 1.12-7.01 4.77-7.01 9.96 0 8.56 5.05 11.5 8 16.97-8.84-.14-23.99-14.45-23.99-23v-4.07c0-5.75 4.49-7.72 7.86-9.82l9.12 2.81.14-7.29 7.86 4.35c.7-1.26.98-1.12.98-2.95v-2.95h8v-6.17l8 1.12v-6.17h2.95c2.81 0 2.38-.84 2.95-2.95l1.4.28 3.65 6.73c12.62-3.37 25.67-22.02 44.05-22.02h.98c8.28 0 9.4 2.67 15.01 4.07 0-7.72-3.79-13.05-11.08-13.05h-8.98c-8.56 0-31 3.79-31-5.05v-1.96c0-9.26 30.44-5.05 41.1-5.05v1.68l-8.14.98V179l-4.77-2.52-.42 1.68-4.77-1.12-.7 1.4-4.21-1.82v1.96c-4.91-.42-3.65-1.96-8-1.96h-.98c-3.37.14-4.21 1.41-5.9 3.09zm-28.05-6.87c5.89-.14 10.8 1.26 13.19 4.91-5.19 1.26-6.73 5.05-12.06 5.05h-2.95c.56-4.77 3.23-3.93 8.42-5.47l-6.6-4.49zm-29.04-1.13c2.24-1.12 6.31-2.1 9.96-1.96l9.96.56v1.4h-4.07v2.95l7.01 2.95v5.05l14.87 5.61.14 1.4h-5.05l2.38 2.67-7.29-1.96-.14 2.38 5.61 4.35-.7.84-6.87-3.23-7.43 5.75-.56-5.75c0-5.47-3.79-7.86-7.01-9.96.42 5.33 4.07 5.75 4.07 8.98v1.96c0 4.49-8 8-13.05 8-3.09 0-10.94-2.52-13.05-4.07l9.96-.14c13.75.7 9.12-8.56 5.05-14.87 7.43-.56 1.54-4.07 7.01-4.07h.98c3.93 0 1.96 3.79 9.96 4.07-.7-7.72-7.86-8-13.05-8-1.4 0-.56-1.12-4.07-1.96 0 9.4-.28 6.59-7.01 6.03l1.96 4.07c-4.49-.14-14.03-4.07-14.03-8 0-2.24.7-2.95 2.95-2.95 8.14 0 4.07 6.03 15.01 6.03l-3.5-8.13zm-39.98 25.11c0-12.34 2.38-31.28 8.98-36.05l-5.89 39 .98 2.1c0 8.84 4.63 15.85-4.07 15.99v-21.04zm-4.06 17.96c-5.33 2.52-13.05 2.67-13.05 11.08v.98c0 4.35 1.12 5.47 1.96 8.98-2.24.56-4.07.98-4.07 4.07v.98c0 2.38 1.68 4.07 4.07 4.07h1.96c3.65 0 6.17-5.19 5.75-8.98l.14-9.96 1.4.14 2.67 11.92-3.37 5.33 3.51 1.68-1.82 4.49 5.61 6.31 6.45-5.61.84.56-2.24-4.91.7.84 4.07-4.07-.84-.84c5.19 1.4 12.06 13.89 12.34 22.44l11.78-6.45-.7.84 19.08 14.03.7-.84c-.98 11.08-11.08 8-11.08 15.99 0 3.65.98 4.49 2.95 6.03l-.7-.84 5.05-3.93v1.54l4.63 2.24v-2.95l8.98.98-.7-5.47 5.75-3.51c-1.54-5.75-4.07-1.12-4.07-6.03 0-3.23 4.91-6.59 7.01-8.14l3.93 2.1.98 1.12 31.84-23.43-.56-.84c1.68 7.43 8 17.11 8 22.02 0 6.03-7.72 6.87-11.08 13.05l.98 5.05c4.63-1.26 2.52-2.95 6.03-2.95 2.81 0 2.38.84 2.95 2.95 3.51-.98 2.67-1.96 4.07-1.96 3.09 0 4.07.98 6.03 1.96l-1.12-.98 7.01-8 1.4.56-5.75-8 6.31-6.73c-2.38-3.65-5.05-7.01-5.05-13.05v-4.07c0-3.79 1.82-6.45 4.07-8 0 13.89 5.05 20.76 5.05 30.02 0 10.94-7.01 9.82-7.01 16.97 0 2.24.7 2.95 2.95 2.95l2.1-.56 7.57 1.26 2.38-2.81 5.33.56 7.15-8.28-9.12-5.75 7.57-10.52c-1.12-4.21-1.96-1.68-1.96-5.05v-2.95c0-5.47 8-17.39 8-32.12 0-15.43-8.14-17.11-8.98-25.11-1.26-11.22-5.89-17.11-16.69-17.53l10.66-8.14-1.12-1.4c-1.12-2.24-.84-4.07-4.07-4.07-3.23 0-3.79 1.96-4.07 5.05h-2.95c-13.61 0-44.05-5.33-44.05 8 0 7.72 7.57 11.08 15.01 11.08 12.76 0 30.58-6.31 36.05 4.07-3.65-.84-4.77-1.96-8.98-1.96h-6.03c-9.82 0-30.72 15.57-39.14 20.06-1.82-7.86-3.37-1.12-2.24-11.22.56-5.19-1.68-7.72-4.63-9.68l2.52-5.47-3.23-3.09 9.26-6.59-.42-1.82-24.83-7.72-.14 1.4-1.96-3.09-.42 1.4-12.06-.14h-.98c-8 0-10.52 4.77-12.2 4.21l-13.05 1.68.7 1.12-.7 14.03-.14-.98 8.84 6.31-.56.84-13.05-1.12c-3.79-.42-4.91 4.35-5.05 8l.28-1.26 23.71 5.33c-.7 2.81-7.01 18.24-7.01 20.06 0 3.65 1.12 3.51 1.96 7.01-.98 1.12-1.68 2.95-2.95 2.95-13.89 0-9.4-15.99-19.78-21.04l-1.26-14.03c-1.96-18.94 5.89-35.91 7.01-49.1-18.35 10.58-18.07 35.27-18.07 64.45z"/><path id="XMLID_56_" class="st0" d="M320.69 110.13v6.03c0 30.86 74.2 55.13 74.2 112.22 0 17.81-6.87 37.17-13.05 49.1-5.75 11.22-30.02 31.84-30.02 31.98 35.21 0 32.4-1.12 53.3-17.81 11.5-9.4 23.85-26.79 23.85-47.27v-8.98c0-56.25-84.16-84.3-90.2-110.26 6.87-3.65 14.03-7.72 14.03-18.1 0-6.59-6.59-15.01-13.05-15.01h-.98c-9.25.01-18.08 9.97-18.08 18.1z"/><path id="XMLID_57_" class="st0" d="M173.4 125.14c-4.91 21.04-68.31 46.71-85.85 90.48-9.82 24.27-3.51 51.34 10.52 67.05 8.28 9.26 14.45 12.76 24.27 19.78 14.45 10.24 14.73 7.01 38.01 7.01-1.26-3.23-13.05-10.24-16.27-13.75-4.91-5.33-9.26-11.36-13.19-17.81-6.03-10.1-13.61-32.12-13.61-47.55 0-59.62 74.2-83.6 74.2-114.18v-6.03c0-7.72-9.12-18.1-16.97-18.1h-1.96c-13.32 0-20.89 21.6.85 33.1z"/><path id="XMLID_100_" class="st0" d="M248.45 108.03c1.82 0 1.54 1.54 1.96 2.95h-4.07c.56-1.41.42-2.95 2.11-2.95zm13.18 3.23c.56-1.12 1.54-3.23 2.95-3.23 1.4 0 1.4 1.26 2.1 2.24l-5.05.99zm14.87-8.14h2.95v1.96h-2.95v-1.96zm-9.96.98c0-3.79.7-1.96.98-5.89l6.45 3.09-2.38 6.87c-1.4-.84-5.05-2.24-5.05-4.07zm-34.09-.98h2.95v2.95l-3.09-.98.14-1.97zm8 4.91-.98-7.01 5.75-.84 1.26 3.93c-2.52 2.8-1.26 3.64-6.03 3.92zm16.13 2.1c-3.37 0-8-8.98-8-11.08v-.98c0-3.09 5.61-5.47 7.57-11.5l8.42 9.54c-.98 4.07-4.2 14.02-7.99 14.02zm30.02-14.02v-4.07h4.07c-.98 3.65-.56 2.94-4.07 4.07zm-65.37-3.79 5.33-.14-1.4 5.33-3.93-5.19zm46.15-10.24 11.22.98c2.24 3.37 5.05 8.42 5.05 14.03v2.95l-.42.98-14.45-6.03-1.4-12.91zm-19.36 10.38.56-9.54 5.47 1.68-6.03 7.86zm11.37-8.28 4.21-2.1.56 8.28-4.77-6.18zm-33.95 4.91c-2.67 0-2.81-.42-5.61-1.26l3.51-6.59 6.03 1.82c-.42 1.97-1.83 6.03-3.93 6.03zm18.8 6.04-15.43 6.03-.98-1.26 6.73-16.55 10.52-1.26-.84 13.04zm38.29-13.05 6.03-.98c3.09 2.1 3.93 1.96 4.07 7.01h-7.01l-3.09-6.03zm9.68-3.65 4.63-2.24-1.68 6.31-2.95-4.07zm-76.73-1.4 3.93 2.95-.98 3.09h-1.82l-1.13-6.04zm53.31-2.95 5.75 5.19-6.73-1.12.98-4.07zm-27.36 4.91-3.23-.28 5.05-4.77 1.12 3.93c-1.11.84-.97 1.12-2.94 1.12zm5.05-9.96c0-3.51 5.47-8 8.98-8 5.47 0 9.96 3.51 9.96 8.98v1.96c0 11.78-19.08 11.5-19.08-.98v-1.96h.14zM272.57 71c.7-.84 7.29-7.01 8-7.01 6.17 0 10.52 4.77 15.01 6.03-1.54 6.03-8.84 7.57-15.01 8.98l-8-8zm-42.22-7.3 8.7 7.86.56 1.4c-4.91 1.26-3.37 6.03-8 6.03h-1.96c-5.19 0-10.8-4.77-13.05-8.14l13.75-7.15zm65.93-2.1.28 5.47-4.35-2.38 4.07-3.09zm-21.74 1.26c-.98 3.93-2.1 4.35-6.03 5.19l-.98-3.93 7.01-1.26zm-31 6.17c-3.93-.98-6.03-2.1-7.01-6.03l8 .98-.99 5.05zm-27.36-7.01 3.51 2.81-4.49 2.24.98-5.05zm8.28-7.01c.84 0 6.87 7.01.98 7.01h-1.96c-2.1 0-5.05-2.95-5.05-4.07 0-1.82 3.78-2.94 6.03-2.94zm62.14 0h1.96c2.67 0 2.81.42 5.05.98-.7 2.81-1.54 6.03-5.05 6.03-2.67 0-2.81-.42-5.33-1.12l3.37-5.89zm-27.07 2.94c1.68-2.52 1.54-4.07 5.05-5.05v6.03l-5.05-.98zm-7.02-.98c0 1.68-2.81 2.38-4.07 2.95l-.98-3.09v-4.91c1.13.84 5.05 3.65 5.05 5.05zm38.02-8.98.98 4.07c-4.35-2.38-2.52.84-2.95-4.07h1.97zm-46.85.42.84 11.64h-13.05C230.35 55 227.4 53.46 227.4 47v-2.95l.28-.98 16 5.34zm-20.76-1.68 1.4 4.35-4.21.7 2.81-5.05zm44.6 5.19c0-5.61 11.5-8 18.1-8 0 5.47-3.93 15.99-8 15.99h-9.96v-8h-.14zm-20.06-3.93c1.68-7.43 3.65-13.33 8.98-16.97 2.1 3.09 7.01 10.1 7.01 15.01v2.95l-6.87 6.03-9.12-7.02zM245.5 40c0 2.67-.42 2.81-.98 5.05-2.67-1.26-6.03-1.12-6.03-5.05 0-2.67.42-2.81.98-5.05 2.94.7 6.03 1.54 6.03 5.05zm31-4.07c2.95.84 5.05 2.24 6.03 5.05h-6.03v-5.05zM265.56 40c1.82-2.81 2.81-4.63 7.01-5.05.56 2.24.98 2.24.98 5.05 0 3.51-3.51 4.77-7.01 5.05l-.98-5.05zm-30.16-4.07-1.12 5.05c-4.91 0-2.67.98-4.63-1.68l5.75-3.37zm28.19-.98-2.38-3.79 6.31-.28c-1.12 4.21-.42 2.24-3.93 4.07zm-16.13-4.07c1.96 0 1.82-.28 2.95-.98-.42 1.82-1.12 5.05-2.95 5.05-1.4 0-.56-1.12-4.07-1.96 1.12-1.54.14-1.96 2.95-1.96l1.12-.15zm-36.05 39.14c0 22.72 19.22 45.03 41.1 45.03h5.05c22.86 0 43.06-20.48 43.06-43.06 0-25.53-20.2-46.15-45.03-46.15-23 .13-44.18 21.17-44.18 44.18z"/><path id="XMLID_103_" class="st0" d="M198.37 70.02c0-30.58 27.35-57.09 58.07-57.09S313.53 39.44 313.53 71v.98c0 27.35-25.53 56.11-51.06 56.11h-9.96c-29.31 0-54.14-27.63-54.14-58.07zm58.21 62.14c33.81 0 61.16-28.34 61.16-62.14 0-31.7-27.77-60.18-60.18-60.18h-2.95c-29.6 0-59.06 26.93-59.06 55.13v12.06c0 28.48 30.16 55.13 60.18 55.13h.85z"/><path id="XMLID_104_" class="st0" d="m411.86 385.63-5.05-1.96 1.27 6.03 3.78 1.96v-3.92z"/><path id="XMLID_105_" class="st0" d="M92.18 381.56v2.95c4.35-1.12 3.93-2.52 5.05-7.01-2.95.42-5.05.84-5.05 4.06z"/><path id="XMLID_106_" class="st0" d="m136.23 373.57.98-2.81-9.96-3.23c1.54 2.25 5.61 5.76 8.98 6.04z"/><path id="XMLID_107_" class="st0" d="m375.67 367.26-7.85 2.38 1.12 4.21z"/><path id="XMLID_108_" class="st0" d="m381.71 372.45-5.9 2.38 1.27 4.07z"/><path id="XMLID_109_" class="st0" d="m123.04 373.85 3.79 5.05 1.4-3.37z"/><path id="XMLID_125_" class="st0" d="M184.9 382.27c.14.28.14.56.28.7l.14.42c.14.56-.14 1.12-.84 1.82-.28.14-.56.42-.84.7-.28.28-.56.42-.84.56l1.54 3.79 1.82-.7.7 1.82-1.82.7 1.4 3.65-1.82.7-1.54-3.65-1.4.56-1.82.7c-1.4.56-2.67.7-3.79.42-1.12-.28-1.96-.98-2.67-1.82-.56-.84-.98-1.54-1.12-2.1l-.28-.7c-.14-.28-.14-.56-.28-.98-.14-.28-.14-.56-.14-.7v-.84c0-.42 0-.7.14-.84 0-.14.14-.42.28-.84.28-.42.42-.84.7-1.12.28-.28.56-.42.84-.56l1.12-.7 3.79-1.54c-.14-.28-.42-.42-.56-.56-.28-.14-.42-.28-.56-.28h-.42l-.7.14-.7.28c-.56.28-1.12.56-1.54.84-.42.28-.7.56-.84.98-.14.28-.28.56-.14.7l.42.98-1.82.7-.28-.56c-.14-.42-.14-.84-.14-1.4 0-.56.14-.98.42-1.54.28-.42.7-.98 1.4-1.4l.98-.56 1.12-.42c.7-.28 1.12-.42 1.4-.56.28-.14.56-.14.84-.14h.56c.14 0 .42.14.56.14l1.12.56.7.56.14.42.14.42-.7.28c-.42-1.26-.42-2.24.14-2.67.14-.14.28-.28.56-.42.14-.14.28-.28.56-.42l.84-.42.28-.14.42-.14.7 1.68-.7.28-.84.42c-.14.14-.28.28-.14.7.28-.14.7-.14.98-.14s.7.14.98.28.56.42.7.7c.29.55.43.84.57 1.26zm-1.68.98-.42-.7-.28-.28c-.28 0-.7 0-.98.14l-.42.14.84 2.1c.56-.28.98-.42.98-.7.28-.28.28-.56.28-.7zm-.84 7.85-3.09-7.72-.56.14-.98.42-.84.28c-.14 0-.28.14-.42.14-.14 0-.42.14-.7.42l-.7.42c-.14.14-.28.14-.42.28-.14 0-.14.14-.28.28-.28.14-.42.56-.56.84l-.14 1.26c0 .28 0 .56.14.7 0 .28.14.56.28.84.28.7.7 1.26 1.12 1.82.42.42.84.84 1.4.98s1.12.14 1.82.14l1.12-.28 1.4-.56 1.41-.4zm20.2-12.34c.28.7.42 1.26.42 1.96.14.56 0 1.4-.14 2.38-.14.84-.7 1.68-1.54 2.38-.42.28-.98.56-1.4.84-.56.28-1.26.56-2.1.84l-.56-1.68 1.12-.42.84-.42c.56-.28.84-.56 1.12-.84.14-.14.14-.28.28-.42.14-.14.28-.42.42-.7.14-.28.28-.7.14-1.26l-.14-1.54-.42-1.54-.28-.7-.42-.7-.28-.42-.56-.56c-.14-.28-.28-.42-.42-.56-.14-.14-.28-.28-.7-.56-.28-.28-.7-.42-1.12-.56-.42-.14-.84-.14-1.12-.14h-.7c-.14 0-.42.14-.7.14-.42.14-.7.42-1.12.7l-.84.7-.7.98.28-.14c.28-.14.56-.14.7-.28.42-.14.84-.14 1.4-.14.56 0 1.12.14 1.54.56.42.28.84.84 1.4 1.4.42.56.84 1.26 1.12 2.24l.28.7c.14.42.28.84.28 1.4.14.7 0 1.4-.28 2.38-.42.98-.98 1.82-1.68 2.38-.84.56-1.54.98-2.38 1.26-.84.28-1.54.42-2.1.42s-1.26-.14-1.82-.28-1.12-.56-1.68-1.26c-.56-.56-.84-1.26-1.12-2.1-.14-.42-.28-.7-.28-.84l-.42.14-.56-1.82 3.51-5.89-.14-.28s-.14-.14-.28-.14l-.56-.14-.7.14c-.28.14-.56.28-.7.56-.14.28-.14.7 0 1.4l.56 1.54-1.82.56-.56-1.82c-.28-.84-.28-1.68 0-2.52.28-.7.98-1.26 2.1-1.68.7-.28 1.4-.42 1.82-.28.42 0 .7.14 1.26.42l.7-.84.42-.42.7-.42.84-.42.56-.14.98-.28.84-.14c.28 0 .42-.14.56-.14.14 0 .56 0 .98.14.7 0 1.4.28 2.1.84.14 0 .28.14.42.28l.42.42.84.84.98 1.96.41 2.53zm-6.46 2.1-.28-.7-.42-.84c-.28-.42-.56-.7-.84-.98-.28-.14-.7-.28-.98-.28h-.7c-.14 0-.28 0-.56.14l-1.82.7-2.24 3.51.42-.14c0 .42 0 .7.14 1.12 0 .42.14.7.28.98.28.84.56 1.4.98 1.82.42.42.98.7 1.54.84s1.26 0 1.82-.14l.56-.14c.7-.28 1.26-.56 1.68-.98.14-.28.42-.42.56-.7.14-.28.28-.42.28-.7.14-.42.14-.98.14-1.54l-.14-.84-.42-1.13zm21.04-6.17c.14.7.28 1.4.28 2.1 0 .56 0 1.4-.28 2.38-.28.84-.84 1.54-1.68 2.24-.42.28-.98.56-1.54.84-.56.28-1.26.42-2.1.7l-.42-1.82 1.12-.28.84-.42c.56-.28.98-.42 1.26-.84.14-.14.14-.14.28-.42.14-.14.28-.42.42-.7.14-.28.28-.7.28-1.26v-1.54l-.28-1.54-.14-.84-.28-.7-.28-.42-.42-.7c-.14-.28-.28-.42-.28-.56l-.56-.56c-.28-.28-.7-.42-1.12-.56-.42-.14-.84-.14-1.12-.14h-.7c-.14 0-.42 0-.7.14-.42.14-.84.28-1.12.56l-.98.7-.84.84.28-.14c.28-.14.56-.14.7-.14.42-.14.84-.14 1.4 0 .56 0 1.12.28 1.54.56.42.42.84.84 1.26 1.54.42.56.7 1.4.98 2.24l.14.7c.14.42.14.84.28 1.4.14.7 0 1.4-.56 2.38-.42.98-1.12 1.68-1.82 2.24-.84.42-1.68.84-2.38.98-.84.28-1.54.28-2.24.28-.56 0-1.26-.14-1.82-.42-.56-.28-1.12-.7-1.54-1.26-.42-.7-.84-1.4-.98-2.24-.14-.42-.14-.7-.28-.84l-.42.14-.56-1.82 3.93-5.61-.14-.28s-.14-.14-.28-.14l-.56-.14-.7.14c-.28.14-.56.28-.7.56-.14.28-.14.7 0 1.4l.42 1.68-1.82.56-.98-1.96c-.28-.98-.14-1.68.14-2.52.42-.7 1.12-1.26 2.24-1.54.7-.14 1.4-.28 1.82-.14.42 0 .7.28 1.12.56l.7-.84.42-.42.7-.42.98-.42.56-.14.98-.28h1.4c.14 0 .56 0 .98.14.7 0 1.4.42 2.1.98.14 0 .28.14.28.28l.42.42.7.98.84 1.96.83 2.39zm-6.59 1.68-.14-.7-.42-.84c-.28-.42-.56-.84-.84-.98-.28-.28-.56-.42-.98-.42s-.56-.14-.7 0c-.14 0-.28 0-.56.14l-1.96.56-2.52 3.37.42-.14v1.12c0 .42.14.7.14.98.28.84.42 1.4.84 1.82.42.42.98.7 1.54.84s1.26.14 1.82 0l.56-.14c.7-.14 1.4-.56 1.82-.98.28-.14.42-.42.56-.56.14-.14.28-.42.28-.7.14-.42.28-.98.28-1.4v-.84l-.14-1.13zm10.1-3.92c.42 1.68.56 3.09.42 4.35 0 .56-.14 1.12-.28 1.54-.14.42-.28.84-.56 1.26-.28.28-.56.56-.7.84-.28.14-.42.42-.7.56-.28.14-.56.28-.98.42-.42.14-.84.28-1.54.42l-.42-1.82 1.12-.28c.56-.14.98-.28 1.26-.56s.56-.56.84-.98c.14-.42.28-1.12.28-1.96v-1.26c0-.42-.14-.98-.28-1.68-.28-.98-.56-1.82-.84-2.52-.28-.7-.84-1.12-1.4-1.54-.28-.14-.42-.28-.7-.28-.14 0-.42-.14-.7-.14-.28 0-.7 0-1.26.14l-.84.14-.42-1.82 1.4-.28.84-.14h1.12c.84 0 1.68.56 2.67 1.82.69.82 1.25 2.22 1.67 3.77zm18.66-2.39.14 1.54v1.68c-.14 1.12-.42 2.1-1.12 2.81-.42.42-.7.84-.98.98-.28.28-.56.42-.98.56l-1.26.42-1.13.15h-.42l-.7.14-.28-2.1 1.54-.14c.14 0 .56-.14.98-.42.42-.14.84-.56 1.26-.84.28-.42.56-.84.7-1.54.14-.7.28-1.26.14-1.96-.14-.98-.42-1.96-.7-2.95-.14-.42-.28-.7-.28-.84-.14-.42-.42-.84-.84-1.12-.42-.42-.98-.7-1.54-.98-.28-.14-.56-.14-.84-.14h-.98c-.42 0-.98.28-1.4.42-.42.14-.84.42-1.12.7-.28.28-.42.42-.56.7l.14-.28h-.14c.42 0 .98 0 1.54.14.42.14.7.14.98.42.28.14.56.42.84.7.28.28.42.56.56.98.14.28.28.7.42.98.14.42.14.7.28.98s.14.7.14.98c0 .42.14.7 0 1.12 0 .42 0 .7-.14 1.12-.14.7-.28 1.26-.56 1.82s-.7.98-1.26 1.4c0 0-.14.14-.56.42-.28.28-.56.42-.84.56l-.98.42-1.12.28c-1.4.14-2.38.14-3.09-.14l-.84-.42s-.28-.14-.7-.42c-.14 0-.14-.14-.28-.28-.28-.28-.42-.56-.7-.98l-.7-1.96-.28-2.38-.28-2.1 1.96-.28c.14.56.28.7.56.7.42 0 .84-.28.98-.56l.56-1.4.56-1.4c0-.28-.14-.56-.28-.84 0-.14-.14-.28-.28-.28s-.14-.14-.28-.14h-.56c-.28 0-.56.14-.7.28-.14.14-.14.28-.28.56v.7c0 .28 0 .7.14 1.4l-2.24.28c-.14-.84-.14-1.54-.14-2.1s.14-1.12.28-1.54c.42-.98 1.26-1.54 2.52-1.68.42 0 .7-.14.98-.14s.42 0 .56.14c.14 0 .42.14.7.28.42.28.7.42.7.56l-.14.14.42-.42.56-.56c.56-.42 1.4-.7 2.67-.98.56-.14.98-.14 1.54-.14.42 0 .98.14 1.54.14.28.14.7.14.98.28l.84.42c.14 0 .28.28.56.56l.7.7c.42.56.84 1.26 1.12 2.1l.42 1.26.99 1.53zm-7.3 1.97c-.14-.7-.28-1.12-.42-1.68-.14-.42-.56-.84-.84-1.12-.14-.14-.28-.14-.42-.28-.14 0-.28-.14-.56-.14h-1.4l.14.28-.28.28-.42.98c-.28.56-.56.98-.98 1.4s-.98.7-1.54.7h-.7v.28h-.14v.42l.14 1.26c0 .42.14.7.28.98s.28.56.56.84c.28.42.7.7 1.26.84.28 0 .56.14.98.14h1.26c.42 0 .7-.14.84-.28s.56-.28.98-.56c.56-.42.98-.84 1.12-1.4l.14-.7.14-.7-.14-1.54zm17.82-3.09c.14.84 0 1.54-.14 2.24-.14.7-.42 1.26-.84 1.82a4.152 4.152 0 0 1-3.09 1.96c-1.26.14-2.38-.28-3.37-1.4-.98-.98-1.54-2.38-1.68-3.93-.14-1.54.14-2.95.98-4.07.84-1.26 1.82-1.82 3.09-1.96 1.26-.14 2.38.42 3.37 1.4.98 1.13 1.54 2.4 1.68 3.94zm-1.83.14c-.14-.98-.42-1.96-.98-2.67-.28-.42-.56-.7-.84-.84-.28-.14-.7-.14-.98-.14-.7 0-1.4.56-1.82 1.26-.42.84-.7 1.68-.56 2.81.14.98.42 1.96.98 2.67.56.7 1.26.98 1.96.98s1.26-.56 1.82-1.26c.28-.85.56-1.69.42-2.81zm26.38 8.28c0 .98-.28 1.68-.56 2.24l-.28.56c-.14.28-.42.56-.84.84-.42.42-.98.7-1.68.84-.56.14-1.26.28-1.96.14-.7 0-1.4-.28-2.1-.56-.84-.28-1.4-.84-1.82-1.82-.28-.7-.42-1.26-.28-1.96v-.98h.28-.16l-.42-.28-1.12-.56c-.42-.28-.84-.84-1.26-1.54-.42-.84-.56-1.4-.7-1.96v-1.96c0-.7.14-1.4.28-1.96s.42-1.12.84-1.54c.7-.98 1.54-1.54 2.38-1.68.84-.14 1.54-.28 2.24-.14l3.65.28-.14-.42c-.14-.28-.28-.42-.56-.56l-.84-.42-1.26-.14c-1.4-.14-2.38 0-2.67.28l-.56.7c-.14.14-.14.28-.14.42 0 .14 0 .28-.14.42l-1.96-.14c.14-1.12.42-1.82.98-2.52.56-.56 1.26-.84 1.96-1.12.84-.14 1.68-.14 2.67-.14.98 0 1.68.28 2.38.56s1.4.7 1.82 1.26l.42.84c.14.28.14.56.28.84v2.1l-3.23-.28-1.26-.14c-1.96-.14-3.23 0-3.93.56l-.42.42c-.14.14-.14.28-.28.56s-.14.42-.28.7c-.14.28-.14.56-.14.98 0 .84 0 1.82.28 2.67.14.7.56 1.26.98 1.54.42.28 1.12.42 2.1.7l1.54.14c.56 0 1.12 0 1.96-.14.42 0 .7-.14.98-.28s.7-.28 1.12-.7l-.14 2.24c-.56.28-1.4.42-2.38.56l-1.54.14-1.54-.14-.14.28v1.54c0 .28.28.42.7.84.42.28.98.42 1.68.56.7 0 1.26 0 1.54-.28.42-.14.7-.42.84-.56s.28-.28.42-.7c.14-.28.28-.42.28-.7v-.7l2.13.27zm13.88-6.32c-.14.7-.42 1.54-.7 2.52-.42.98-.98 1.82-1.54 2.67s-1.54 1.4-2.67 1.82c-1.12.42-2.38.56-3.51.42-.56-.14-1.12-.14-1.54-.42-.42-.14-.98-.42-1.54-.7a5.47 5.47 0 0 1-1.96-2.38c-.14-.42-.28-.98-.42-1.4-.14-.42-.14-.98-.28-1.4v-1.4c0-.56 0-.98.14-1.4.14-.98.28-1.82.56-2.24.14-.28.14-.42.28-.7.14-.14.28-.42.42-.7l.7-.84c.28-.28.7-.56 1.26-.84.56-.14.98-.14 1.54-.14.56.14 1.12.28 1.54.7.14.14.28.42.42.84v1.26c-.14.28-.14.42-.14.56l-.28.84-.28.84-.14.56c0 .42 0 .84.28 1.12.28.28.56.42.98.56.56.14.98-.14 1.26-.42.42-.42.7-1.12.7-1.82l.14-1.12c0-.42-.14-.7-.42-1.12-.14-.42-.84-.7-1.96-.84l.28-1.68.84.14h.42l.84.28c.56.14 1.12.84 1.4 1.82.42.84.56 1.82.28 2.95l-.14.7c0 .28-.14.56-.28.84-.14.28-.28.56-.28.7l-.7.7c-.42.28-.84.56-1.4.84-.28.14-.56.14-.84.14h-.7l-.84-.28c-.42-.14-.98-.56-1.4-1.12-.42-.7-.7-1.4-.56-2.24l.28-1.26.7-1.4v-.56c0-.28.14-.56.14-.56h-.42c-.42 0-.7.14-1.12.56-.28.28-.42.56-.42.84-.14.14-.14.42-.28.7l-.28 1.12-.14.84-.14.7v1.68c0 .42.14.7.28 1.12.28.7.7 1.4 1.26 1.96.7.56 1.54.98 2.38 1.12.98.14 1.96 0 2.81-.42.84-.42 1.4-.84 1.82-1.4.28-.42.7-.98 1.12-1.82.42-.84.7-1.96.84-3.37s.28-2.67 0-3.79a5.64 5.64 0 0 0-1.26-2.95c-.7-.84-1.82-1.26-3.23-1.54-1.12-.14-2.1 0-3.09.42s-1.68 1.26-2.1 2.38l-1.68-.28.14-.98.28-.56.28-.42.7-.7c.14-.28.42-.42.56-.56.14-.14.42-.28.7-.56.14 0 .28-.14.7-.28.28-.14.56-.28.7-.28.42-.14.98-.14 1.82-.14l1.82.14.7.14c.42 0 .7.14 1.12.28.28.14.56.28.98.42.28.28.7.56 1.12 1.12.7.84 1.26 1.82 1.54 2.95.14.42.28.98.28 1.54v1.68l-.67 3.5zm14.03 6.74c-.42 1.12-.84 2.24-1.68 3.23-.84.84-1.54 1.4-2.38 1.54l-.84.14h-.7l-.84-.14-.84-.42-.7-.56-.28-.42-.28-.42v-.42l.14-.14c-.14 0-.14.14-.28.14s-.28.14-.56.28c-.42.14-.84.28-1.26.28h-.7c-.28 0-.42-.14-.7-.14-.42-.14-.84-.42-1.4-.7-.56-.42-.98-.84-1.26-1.54-.14-.28-.14-.42-.28-.56 0-.14-.14-.56-.14-1.12 0-.14 0-.56.14-.98 0-.42.14-.84.14-1.12l.42-1.82c.14-.56.56-1.4.98-2.52.42-1.12 1.26-2.1 2.38-2.81 1.12-.84 2.1-1.12 2.95-1.12.84 0 1.4.14 1.82.28l.56.14c.14 0 .28.14.42.14.14.14.28.14.56.42l-.56 1.68-.98-.42-.56-.14-.56-.14c-.28 0-.42-.14-.7-.14h-.42c-.14 0-.28 0-.42.14-.14.14-.42.14-.56.28-.14.14-.28.28-.56.42-.42.28-.84.7-1.26 1.4-.42.7-.84 1.54-1.12 2.52l-.42 1.26c0 .14-.14.42-.14.42 0 .14-.14.42-.14.84-.14.56-.14.98 0 1.54 0 .42.14.84.56 1.26s.7.56.98.7c.56.14.98 0 1.26-.14.28-.28.56-.56.84-.98l.42-.98.14-.56.7-2.38 2.1.7-.7 2.24-.42 1.4c-.14.28-.14.56-.14.84s.14.56.42.84c.28.28.56.42.84.56h.7c.28 0 .56 0 .84-.28.14-.14.28-.14.42-.42l.7-.7c.42-.56.84-1.4 1.12-2.38l.14-.84.14-.7c.14-.7 0-1.12-.14-1.54-.14-.42-.84-.7-1.96-.98l-2.81-.84c.42-1.4.7-2.1.98-2.52.14-.28.42-.56.56-.7.14-.14.42-.28.7-.42.14-.14.42-.14.42-.14.14 0 .42-.14.84-.14s.98 0 1.68.28c1.26.42 1.96.98 2.24 1.68.14.28.14.56.28.84 0 .28.14.56.14.7l-.14.98-.28.84-1.68-.56.14-.7c.28-1.12-.14-1.82-1.4-2.1-.42-.14-.84-.14-1.12 0-.28.14-.56.42-.7.84l.7.14.7.28c.56.14.98.28 1.4.56.42.14.84.42 1.12.98.14.28.28.42.42.84.14.28.14.56.28.98 0 .7-.14 1.4-.28 2.1l-.14.56v.56z"/><path id="XMLID_130_" class="st0" d="m317.74 383.11-.7 1.4-.84 1.4c-.7.98-1.4 1.54-2.38 1.96-.56.14-.98.28-1.4.42-.42.14-.7.14-1.12 0l-1.4-.28-.98-.42-.42-.14-.7-.28.84-1.96 1.4.56c.14.14.56.14.98.14.56 0 .98 0 1.54-.14.42-.14.98-.56 1.4-.98.42-.42.84-.98 1.12-1.68.42-.98.7-1.96.84-2.95.14-.42.14-.7.14-.98 0-.56 0-.98-.14-1.4-.14-.56-.42-1.12-.84-1.54-.14-.28-.42-.42-.56-.56l-.84-.42c-.42-.14-.98-.28-1.4-.28s-.98 0-1.26.14l-.84.42.28-.14h-.14c.42.14.84.42 1.4.84.28.28.56.56.7.84.14.28.28.56.28.98.14.42.14.7.14 1.12s0 .7-.14 1.12c-.14.42-.14.7-.28.98s-.14.56-.28.98c-.14.42-.28.7-.42.98-.14.28-.42.7-.56.98-.42.56-.84.98-1.4 1.4-.56.28-1.12.56-1.82.7 0 0-.28 0-.7.14-.42 0-.7.14-.98.14l-1.12-.14-1.12-.28c-1.26-.42-2.1-.98-2.67-1.68-.14-.28-.42-.56-.56-.7 0 0-.14-.28-.28-.7 0-.14-.14-.28-.14-.42 0-.28-.14-.7-.14-1.12l.42-1.96.84-2.24.7-1.96 1.82.7c-.14.42-.14.84.14.84.42.14.84.14 1.12 0l1.12-.84 1.12-.98c.14-.28.14-.56.14-.84v-.42c0-.14-.14-.14-.14-.14s-.14-.14-.42-.28c-.28-.14-.56-.14-.7 0-.14 0-.28.14-.56.42-.14.28-.28.42-.42.7-.14.28-.28.56-.56 1.26l-2.1-.84c.28-.84.56-1.4.98-1.96.28-.56.7-.84 1.12-1.26.84-.7 1.82-.7 3.09-.28.42.14.7.28.84.42l.42.42c.14.14.28.28.42.56.28.42.28.7.28.84h-.14s.28-.14.56-.14l.84-.28c.7-.14 1.68 0 2.81.42.56.14.98.42 1.4.7l1.26.84.7.7c.14.28.42.56.42.84 0 .14.14.42.28.7.14.42.14.7.28.98.14.7.14 1.4-.14 2.38l-.28 1.26-.15.99zm-7.29-1.83c.28-.56.42-1.12.42-1.68 0-.56 0-.98-.28-1.4-.14-.14-.14-.28-.28-.42l-.42-.42-1.12-.56h-.14v.28h-.42l-.84.7c-.42.28-.98.56-1.54.7-.56.14-1.12.14-1.68-.14l-.56-.28-.14.28h-.14l-.14.42-.42 1.12c-.14.42-.28.7-.28.98v.98c.14.56.28.98.7 1.4.14.14.42.42.84.56.28.14.7.42 1.12.56s.7.28.84.28h1.12c.7 0 1.26-.28 1.68-.7l.42-.56.42-.56.84-1.54zm22.02 12.21c-.28.56-.84 1.12-1.26 1.68-.42.42-.98.98-1.82 1.4-.7.42-1.68.56-2.81.28-.56-.14-1.12-.28-1.54-.56l-1.96-.98.98-1.54.98.56.84.42c.56.28.98.28 1.4.28h.42c.14 0 .42-.14.84-.14.28-.14.7-.28 1.12-.7l1.12-1.12.98-1.26.42-.7.28-.7.14-.56.14-.84c.14-.28.14-.42.14-.7v-.84c0-.42-.14-.84-.28-1.26-.28-.42-.42-.7-.7-.98-.14-.28-.42-.42-.56-.56-.14-.14-.28-.28-.56-.42-.42-.28-.7-.42-1.26-.42l-1.12-.14h-1.26l.28.14c.28.14.42.28.7.42.28.14.7.56.98.98.42.42.56.98.56 1.54s0 1.26-.14 1.96-.42 1.54-.98 2.24l-.42.7c-.14.28-.42.7-.84 1.12-.42.56-1.12.98-2.1 1.26s-1.96.42-2.95.28c-.98-.28-1.68-.56-2.38-.98-.7-.42-1.26-.84-1.68-1.4-.42-.42-.7-.98-.98-1.54s-.28-1.26-.14-2.1c.14-.84.42-1.54.84-2.24.28-.42.42-.7.42-.84l-.42-.28.98-1.68 6.87-1.12.14-.28s0-.14-.14-.42l-.28-.42-.7-.42c-.28-.14-.56-.14-.84-.14-.28 0-.7.42-.98.98l-.84 1.4-1.68-.98.98-1.68c.56-.84 1.12-1.4 1.96-1.54.7-.28 1.68 0 2.67.56.7.42 1.12.84 1.4 1.12.28.28.42.7.42 1.26H329.53l.84.28.84.42.42.28.84.56.56.56.42.42c.14.14.28.42.56.84.42.56.7 1.26.7 2.1v.98l-.14 1.12-.84 1.96-1.26 2.38zm-5.75-3.51.42-.56c.14-.28.28-.56.28-.84.14-.56.14-.98.14-1.26 0-.42-.14-.7-.42-.98-.28-.28-.42-.56-.42-.56-.14 0-.28-.14-.42-.28l-1.68-.98-4.21.56.42.28-.84.84c-.28.28-.42.56-.56.84-.42.7-.7 1.4-.84 1.82 0 .56.14 1.12.42 1.68.28.56.7.98 1.26 1.26l.56.28c.7.42 1.26.56 1.96.7h.84c.28 0 .56-.14.7-.14.42-.28.84-.42 1.26-.84l.56-.7.57-1.12z"/><path id="XMLID_141_" class="st0" d="M234.42 407.66v1.4c0 .14-.14.42-.14.7 0 .7-.42 1.4-.84 2.1-.14.28-.42.56-.7.84-.28.28-.56.56-.84.7-.42.28-.7.42-.84.42-.28.14-.56.28-.7.28l-1.26.28-1.54.14c-.7 0-1.26 0-1.82-.14h-.56l-.56-.14c-.42-.14-.98-.56-1.54-.84-.56-.42-1.12-.98-1.54-1.96-.42-.98-.56-1.96-.56-2.95 0-1.12.14-1.96.28-2.67.28-.7.7-1.26 1.12-1.54.42-.28.84-.56 1.12-.56l.98-.14h1.96c0-.56-.14-.84-.42-.98-.28-.14-.56-.28-.84-.28-.42 0-.7 0-.98.14s-.42.28-.56.56c0 .14-.14.28-.14.56v.84h-1.68v-.7c0-.84.28-1.54.98-2.1s1.26-.84 1.96-.84c.98 0 1.82.14 2.38.42.42.14.7.42.84.84.14-.28.42-.56.7-.84.42-.28.84-.42 1.26-.56h.84c.56 0 1.12.14 1.68.28.56.28.84.56 1.12 1.12.28.56.28.98.28 1.54l-.14.84h-1.68l.14-.98c0-.14 0-.28-.14-.56 0 0-.28-.14-.56-.42-.28-.14-.56-.14-.98-.14-.28 0-.7.14-1.12.42-.28.28-.42.56-.42.84h3.37c.14 0 .28.14.42.14.28.14.56.28.98.7.41.85.69 1.97.69 3.24zm-1.83.56v-.42c0-.7-.14-1.4-.28-1.96-.28-.56-.7-.84-1.4-.84H225.3c-.7 0-1.26.14-1.68.42-.42.28-.7.7-.7 1.12l-.14.98v.7c0 .42 0 .98.14 1.54s.28.98.56 1.54.84.84 1.54 1.12c.7.28 1.54.42 2.52.42.84 0 1.54-.14 2.1-.28s1.12-.42 1.54-.98c.56-.42.84-.98 1.12-1.68.14-.42.14-.56.14-.7.15-.28.15-.7.15-.98zm21.61-.56c0 .84-.14 1.68-.28 2.38l-.28.98-.42.84c-.14.28-.28.56-.42.7-.14.28-.28.42-.56.56-.14.14-.42.28-.56.42-.14.14-.42.28-.56.42l-.84.28-.7.14c-.42 0-.84 0-1.4-.14-.56-.14-.98-.56-1.26-1.26-.14-.42-.28-.7-.28-.98s-.14-.7-.14-1.26h1.82v.7c0 .28 0 .42.14.56 0 .14.28.28.56.56.28.14.56.28.84.28.14 0 .28 0 .42-.14.14 0 .42-.28.7-.42.42-.42.84-1.12 1.12-2.24.28-.98.42-2.1.42-3.23 0-.84 0-1.54-.14-1.96 0-.42-.14-.7-.14-.84s-.14-.42-.28-.84c-.28-.84-.7-1.26-1.12-1.26-.28 0-.56.14-.56.42l-.28 1.4v4.34h-1.68V404.01l-.14-.7c-.14-.42-.28-.84-.42-.98-.14-.14-.28-.28-.42-.28s-.28.14-.42.28c-.14.28-.14.42-.14.56v2.38l.14 1.68v.56c0 .98-.14 1.82-.28 2.67-.14.7-.42 1.4-.84 2.1-.42.7-.98 1.26-1.68 1.54s-1.54.56-2.52.7h-1.12l-.84-.14-.56-.14c-.14 0-.42-.14-.56-.14-.14 0-.28-.14-.42-.28l-.56-.14c-.14 0-.28-.14-.42-.14h-.7l-.14.14-.28.7h-1.4v-.84c0-.7 0-1.4.14-2.1.14-.7.42-1.26.84-1.68l.56-.56.14-.14c-.14-.28-.28-.7-.42-.98l-.14-.84v-2.52c0-.7.28-1.26.7-1.96.42-.7.7-1.26 1.26-1.54.28-.14.42-.28.56-.42.14-.14.42-.28.84-.28l.7-.14.84-.14c.7 0 1.4.14 1.82.28.56.14.98.42 1.26.56l.84-.84 1.12-1.12h2.38l-1.96 1.82-.42.42-.7.7.14.14-.14-.28c0-.14 0-.14.14-.28.14-.42.42-.7.7-.98.28-.28.7-.56 1.26-.56l.7.14c.42 0 .7.28.84.56l.14.14.14-.28c.14-.14.28-.42.56-.56.28-.14.7-.14 1.26-.14s1.12.28 1.68.84c.42.56.84 1.12 1.12 1.96l.14.98.14.98.42 2.94zm-9.26 0c0-.84-.14-1.54-.28-2.1-.14-.28-.28-.56-.42-.98-.14-.42-.42-.7-.7-1.12-.56-.84-1.4-1.26-2.67-1.26h-.42l-.56.14c-.28 0-.56.14-.84.42-.42.14-.7.56-.98 1.12s-.56 1.26-.56 2.1 0 1.54.14 1.96c.14.42.42.84.7 1.12.42.28.84.56 1.4.56h.42c.14 0 .28-.14.42-.14.28-.14.42-.28.56-.56.14-.28.28-.56.28-.98l.14-1.26v-.7l1.68-.14V408.08c-.14 1.12-.7 1.96-1.68 2.67l-.84.28-.98.14-.98-.14c-.28 0-.7-.28-1.12-.56l-.28.28c-.14.14-.14.28-.28.42-.14.14-.28.28-.28.42l-.42.84.7-.14h.42l.7.14 1.26.28.7.14h1.4c.28 0 .56-.14.84-.14.28-.14.56-.14.84-.28.42-.28.84-.7.98-1.26.14-.28.28-.56.28-.84.14-.28.14-.56.28-.84l.15-1.83zm6.45-7.16h-1.26v-4.63h1.26v4.63zm16.83 6.59c0 .84 0 1.54-.14 2.1 0 .28 0 .56-.14 1.12 0 .42-.14.84-.42 1.4-.28.98-.84 1.82-1.68 2.24-.7.42-1.54.56-2.24.56l-.98-.14c-.14 0-.28 0-.42-.14-.14-.14-.28-.14-.42-.28l-.7-.7-.14-.28-.42.28c-.28.28-.56.56-.84.7l-.84.28-.7.14c-.84 0-1.54-.28-2.1-.7l-.56-.7c-.14-.14-.14-.28-.28-.28-.14-.14-.14-.28-.28-.42-.14-.14-.14-.42-.28-.7-.14-.28-.14-.56-.14-.7l-.14-1.4v-.7c0-.42 0-.7.14-1.12 0-.28.14-.56.14-.7s.14-.42.28-.56l.14-.42h-.56v-1.68h.7v-.84c0-.42.14-.84.42-1.26.28-.42.56-.7.84-.84l.28-.14.56-.14.7-.14h.7c.42 0 .7 0 .98.14s.56.14.84.42c.14.14.42.28.7.7.28.28.42.84.56 1.54l.14 2.24h-4.07c-.42.14-.7.28-.84.56s-.42.56-.56.98l-.14.98-.14 1.12v.28l.14.84.28 1.12c.14.42.42.7.56.84.14.14.28.14.42.14h.56c.14 0 .42 0 .7-.14.28-.14.56-.28.84-.7.28-.28.42-.7.42-1.54v-2.95h1.82v2.8l.14.7c.14.42.28.98.56 1.26.14.14.28.14.56.28s.56.14.84.14.56-.14.98-.28c.28-.14.7-.56.98-1.26.28-.56.42-1.26.56-1.82l.14-1.26v-2.24c0-.7 0-1.12-.14-1.4 0-.28-.14-.42-.14-.7 0-.28-.14-.56-.28-.84-.14-.56-.56-1.12-.98-1.4-.56-.28-1.4-.56-2.67-.56H257.41c-.28 0-.56 0-.84-.14-.28-.14-.56-.28-.84-.7-.14-.28-.28-.56-.28-1.12 0-.7.28-1.4.84-1.82.56-.42 1.26-.84 2.24-.98l1.54-.14 1.82-.14 1.54.14c.56 0 .84.14.84.14.28.14.42.14.56.14.84.14 1.54.42 1.96.84.42.28.84.84.98 1.4.14.28.14.56.28.84.14.42.14.84.14 1.4h-1.96v-.84c0-.28-.14-.56-.28-.7-.14-.28-.28-.42-.42-.56-.14-.14-.42-.28-.84-.28-.28-.14-.7-.14-.84-.28-.28 0-.56-.14-.98-.14s-.84-.14-1.26-.14h-2.1l-.98.14c-.28 0-.56.14-.7.28l-.42.42s-.14.14-.14.42c0 .14 0 .14.14.28.14 0 .28.14.7.14h2.95c1.4 0 2.52 0 3.37.14.84.14 1.54.42 1.96.7.42.28.7.84 1.12 1.4.14.28.28.56.42.98.14.42.28.84.28 1.4l.14 1.4-.13 1.55zm-8.27-2.8v-.56c0-.28-.14-.56-.28-.84-.14-.28-.56-.42-1.26-.42-.42 0-.84.14-.98.28-.28.14-.42.42-.56.7v.84h3.08zm25.11 4.21c0 .7-.14 1.26-.28 1.96-.14.56-.42 1.26-.84 2.1-.42.7-1.12 1.26-2.1 1.68-.56.14-.98.28-1.54.28-.56.14-1.26.14-2.1.14v-1.68h1.12l.84-.14c.56-.14.98-.28 1.26-.42.14 0 .14-.14.28-.28l.56-.56c.28-.28.42-.56.56-.98l.28-1.4.14-1.54v-.7l-.14-.7-.14-.42-.28-.7c0-.28-.14-.42-.14-.56s-.14-.28-.42-.7l-.84-.84c-.42-.14-.7-.42-.98-.42-.28-.14-.56-.14-.7-.14h-.56c-.42 0-.84.14-1.12.28l-.98.42-.98.56h.98c.42 0 .7.14 1.26.28s.84.56 1.26.98c.28.42.56.98.84 1.68.28.7.28 1.4.28 2.24v.7c0 .42 0 .84-.14 1.26 0 .56-.42 1.26-.98 2.1-.7.7-1.4 1.26-2.24 1.54-.84.28-1.68.42-2.38.42-.84 0-1.54-.14-2.1-.28s-1.12-.42-1.54-.84c-.42-.42-.84-.84-1.12-1.54-.28-.7-.42-1.4-.42-2.24v-.84h-.42v-1.82l5.05-4.21v-.28l-.28-.28-.42-.28h-.7c-.28 0-.56.14-.84.28-.28.28-.42.56-.42 1.26v1.54h-1.82v-1.82c0-.84.28-1.68.7-2.24.56-.56 1.26-.84 2.38-.84.7 0 1.26.14 1.68.28.28.14.56.42.98.84l.84-.56.42-.28.84-.14.98-.14h1.54l.7.14c.14 0 .42 0 .56.14.14 0 .42.14.84.42.7.28 1.26.7 1.68 1.4.14.14.14.14.28.42.14.14.14.28.28.42l.42.98.28 1.96-.15 2.11zm-6.32 0v-.7c0-.28 0-.56-.14-.84-.14-.42-.28-.84-.56-1.12-.14-.28-.42-.42-.84-.56-.28-.14-.56-.28-.7-.28h-2.24l-3.09 2.38h.42c-.14.28-.28.7-.28.98s-.14.7-.14.98c0 .84.14 1.4.28 1.96.28.56.7.84 1.12 1.12.56.28 1.12.42 1.68.42h.56c.7 0 1.4-.14 1.82-.42.28-.14.42-.28.7-.42.14-.14.42-.28.42-.56.28-.42.42-.84.56-1.26l.14-.84.29-.84zm12.91-1.41c0 1.68-.14 2.95-.56 4.07-.14.56-.42.98-.56 1.4-.28.42-.42.7-.84.98-.28.28-.56.42-.84.56-.28.14-.56.28-.84.28-.28 0-.56.14-.98.14h-1.4v-1.68h.98c.56 0 .98-.14 1.26-.28s.56-.42.98-.7c.28-.28.42-.84.7-1.82.14-.42.14-.7.28-1.12 0-.42.14-.98.14-1.68 0-.98-.14-1.82-.28-2.52s-.42-1.26-.84-1.68c-.14-.14-.42-.42-.56-.42-.14-.14-.42-.14-.56-.28-.28-.14-.7-.14-1.26-.14h-.7v-1.82h1.4l.7.14.98.28c.84.14 1.4.84 1.96 2.1.56 1.39.84 2.79.84 4.19z"/><path id="XMLID_145_" class="st1" d="M115.47 311.85c-1.54-1.54-1.4-1.68 5.61-2.67 2.52-.28 2.52-.42 1.54-1.4-.56-.56-4.35-3.51-8.56-6.45-15.99-11.36-23.99-19.92-29.74-32.4-4.91-10.52-6.59-18.66-6.17-31.84.28-6.87.56-10.1 1.54-14.45 3.51-14.73 10.66-27.07 22.86-39.28 7.57-7.57 14.03-12.62 31.84-25.39 15.85-11.22 19.92-14.45 24.83-19.08 3.23-3.09 8-8.7 9.82-11.5l.84-1.4-3.09-1.82c-3.23-1.96-6.73-5.47-8.14-8-.42-.84-1.12-2.95-1.4-4.77-2.38-11.92 5.61-22.72 16.69-22.72 4.77 0 8.56 1.82 12.91 6.03 6.59 6.59 8.84 14.59 6.59 23.99-2.52 11.22-9.96 20.48-32.54 41.24-25.53 23.29-35.91 39-38.86 59.06-2.52 16.69.98 35.91 9.82 53.44 3.51 7.15 5.47 9.68 13.89 18.24 8.84 8.98 13.89 13.33 18.66 16.27l3.09 1.82h176.74l3.23-1.96c7.15-4.21 22.72-19.92 28.62-28.76 10.38-15.43 16.27-41.52 13.75-60.04-1.26-9.54-6.31-21.32-12.62-30.16-7.01-9.68-12.62-15.57-34.79-35.63-18.8-17.11-25.25-27.21-25.25-39.56 0-10.8 6.17-19.78 15.85-23.29 12.2-4.35 24.13 7.86 21.32 21.88-.42 1.82-.98 3.93-1.4 4.77-1.26 2.52-4.77 6.03-8 8l-3.09 1.82.98 1.68c1.68 2.95 7.43 9.26 11.5 12.91 5.33 4.77 8.7 7.29 23.43 17.67 16.13 11.5 24.55 18.24 31.7 25.39 13.89 13.89 21.46 28.2 23.85 44.89.84 5.61.7 17.25-.28 22.72-3.23 19.08-13.33 33.95-33.1 48.82-10.94 8.14-11.92 9.12-8.98 9.12 2.52 0 6.31.7 6.31 1.12 0 .28-.42.84-.84 1.26-.7.7-14.17.84-140.55.84-126.11.43-139.57.43-140.41-.41zm42.78-2.67 1.4-.28-1.68-1.68c-.98-.84-3.79-3.23-6.31-5.05-2.52-1.82-5.33-4.07-6.31-4.91-5.05-4.49-13.61-16.55-17.67-24.97-3.09-6.59-7.29-19.08-8.7-26.37-5.61-28.05 2.52-50.64 27.77-76.17 2.67-2.81 10.38-9.96 16.97-15.99 17.11-15.57 21.74-20.9 25.39-28.76 1.68-3.51 1.68-3.79 1.68-10.94 0-7.01 0-7.43-1.4-10.24-4.77-9.4-14.59-13.75-22.16-9.96-6.03 3.09-8.56 11.36-5.75 18.66 1.26 3.51 5.61 8.28 9.54 10.8 1.54.98 2.81 1.82 2.95 1.82.14.14-.56 1.68-1.54 3.65-2.95 6.03-11.92 14.31-31.56 29.46-18.8 14.45-33.39 27.77-40.68 37.31-8.14 10.66-13.19 20.9-15.43 31.56-1.54 7.57-1.68 18.94 0 26.51 3.79 18.24 12.62 30.72 30.3 43.34 11.64 8.28 16.69 11.22 20.62 12.2 1.53.43 20.47.43 22.57.01zm216.44-.7c10.1-1.4 13.19-3.09 28.48-15.85 12.76-10.66 20.06-21.74 23.71-35.77 1.68-6.31 2.24-18.94 1.26-27.07-1.82-15.85-8.98-28.9-24.27-44.33-7.43-7.43-14.17-13.19-29.88-25.11-19.08-14.59-22.02-16.97-27.21-22.16-3.65-3.65-5.19-5.61-6.73-8.84-1.12-2.24-1.96-4.07-1.82-4.21.14-.14 1.82-1.12 3.93-2.24 7.01-4.07 10.52-9.68 9.96-16.13-.42-5.75-5.47-12.48-10.38-13.75-6.59-1.82-15.57 3.51-19.22 11.22-1.4 2.95-1.54 3.65-1.54 9.4 0 5.05.28 6.87 1.12 9.68 2.52 7.43 9.54 15.43 27.21 31.56 26.65 24.13 36.75 37.03 42.36 53.87 3.93 12.06 3.93 27.07 0 42.36-2.95 11.5-7.72 23.43-11.92 29.74-2.38 3.51-14.17 16.83-15.71 17.81-.42.28-3.09 2.67-6.17 5.47l-5.47 5.05h8.98c5.18-.14 11.07-.42 13.31-.7z"/><path id="XMLID_146_" class="st1" d="M119.81 320.12c-.14-.28-.42-1.12-.56-2.1l-.42-1.68h276.34l-.28 1.68c-.14.98-.56 1.82-.84 2.1-.84.57-273.96.57-274.24 0z"/><path id="XMLID_147_" class="st1" d="M230.49 288.14c.28-.98 1.4-2.1 8.42-8.7 3.51-3.23 5.61-6.59 6.17-10.1.28-1.96 0-2.67-2.38-6.73-1.4-2.52-2.95-5.89-3.23-7.43-.84-3.65-.28-11.08.84-12.91l.84-1.26-1.4.7c-3.09 1.68-4.91 4.91-4.91 9.4 0 3.79.98 6.31 4.63 11.78 1.68 2.52 3.23 4.77 3.23 5.05 0 .14-.7.14-1.68 0-7.29-1.4-17.11-9.68-21.04-17.67-1.82-3.79-1.96-4.07-1.68-8.28.28-5.19 1.26-6.87 5.47-9.68l2.52-1.68 4.07 1.26c2.24.7 4.35 1.26 4.49 1.26.28 0 .56-1.54.56-3.37 0-1.82.14-3.37.28-3.37s1.82.84 3.79 1.82c1.82.98 3.65 1.68 4.07 1.54.42-.14.7-1.12.7-2.95v-2.67h7.86v-5.62h1.68c.98 0 2.81.28 4.21.42l2.52.42v-5.9l2.52-.14c1.96-.14 2.52-.42 2.95-1.4.98-2.1 2.24-1.4 4.07 2.24l1.68 3.37 2.1-.84c3.09-1.26 7.01-3.65 14.73-9.26 12.2-8.84 17.67-11.22 26.51-11.64 5.75-.28 6.73-.14 12.91 2.38 1.82.7 3.37 1.12 3.51.98.56-.56-1.12-6.17-2.38-8-2.81-3.79-3.93-4.07-16.69-3.79-24.69.56-28.05.28-30.58-2.67-.98-1.12-1.26-2.1-1.26-3.93 0-3.37 1.82-5.05 6.59-6.17 3.93-.84 17.11-1.12 29.18-.42 5.33.28 5.75.42 5.75 1.4s-.56 1.12-4.07 1.54c-2.81.28-4.07.7-4.07 1.12 0 .98-.84.84-2.95-.42-1.54-.98-1.82-.98-2.1-.28-.28.56-.84.7-2.52.28-1.4-.28-2.38-.28-2.95.14-.7.42-1.26.42-2.24 0-1.82-.84-2.38-.84-2.38.14s-.28.98-4.21-.28c-1.82-.56-3.79-.98-4.49-.98-1.68 0-4.49 1.12-5.33 2.24-.7.7-.56 1.12 1.12 2.52 1.96 1.96 4.91 2.95 8.14 2.95 1.12 0 6.59-.56 12.2-1.12 12.06-1.26 17.96-1.12 21.18.42 4.21 2.1 6.87 7.43 7.29 14.17.28 3.65.42 4.21 3.09 8.14 3.79 5.75 4.91 8.14 5.89 12.48 1.4 6.45.14 13.33-4.49 25.25-3.65 9.4-4.07 14.45-1.54 17.96.56.7.28 1.26-1.4 3.23-2.95 3.37-3.93 5.47-3.93 8 0 2.67.84 3.65 3.93 4.35 1.26.28 2.38.7 2.52.98.14.28-.7 1.54-1.96 2.95-1.26 1.4-2.1 2.81-2.1 3.23.14.42-.28.42-1.68-.28l-1.82-.84-1.68 1.68c-1.82 1.82-2.95 2.1-2.95.84 0-.7-.56-.84-3.93-.42-2.1.14-3.93.28-3.93 0 0-.7 1.26-2.67 3.37-5.47 3.93-5.19 4.63-7.01 4.21-11.78-.14-2.24-1.12-7.15-2.1-10.66-3.23-11.64-3.51-13.33-3.09-19.36.56-9.12-1.12-13.05-5.89-14.03-6.87-1.54-13.33 2.95-22.16 15.43-8 11.36-14.17 16.97-25.95 23.57l-5.33 2.95-1.82-1.4c-2.1-1.54-3.51-4.63-3.51-7.57 0-1.12.84-4.35 1.82-7.01.98-2.81 1.82-5.47 1.82-6.17 0-1.54-1.12-.98-1.68.7-.14.7-1.26 3.09-2.52 5.19-3.09 5.61-3.51 7.86-2.24 11.36.56 1.54 1.12 2.95 1.12 3.23 0 .14-1.12 1.68-2.52 3.37-3.37 4.07-4.21 5.89-4.21 8.84 0 2.24.14 2.38 1.82 3.23 1.4.7 1.68.98 1.12 1.4-1.4 1.12-5.05 6.17-4.77 6.59.14.28-.56.42-1.54.42s-2.95.14-4.21.28c-2.24.28-2.38.28-2.38-.84 0-1.26-.28-1.4-2.95-.42-4.25 1.84-4.95 1.84-4.67.72z"/><path id="XMLID_148_" class="st1" d="M223.9 203.28c-4.07-1.12-8.42-2.95-8.42-3.51 0-.28 3.23-.42 7.01-.42 4.91 0 7.57-.28 8.84-.7 3.37-1.4 3.79-4.07 1.12-9.4-.98-1.96-1.82-3.93-1.96-4.21-.14-.28.42-.7 1.26-.84.98-.14 1.82-.84 2.38-1.82.7-1.4 1.26-1.54 3.23-1.68 2.1-.14 2.67.14 4.21 1.4 1.12.98 2.81 1.82 4.21 2.1l2.38.42-.42-1.54c-.98-3.51-3.93-5.33-9.68-5.89-1.96-.14-4.07-.7-4.63-1.12-1.54-1.12-1.82-.84-1.82 1.26 0 1.12-.14 2.52-.28 3.23-.28 1.12-.56 1.26-3.37.98l-3.09-.28.7 1.54c1.12 2.1.98 2.24-1.54 1.82-5.47-.7-11.78-4.91-11.78-7.72 0-2.67.42-3.09 3.23-3.09 2.95 0 4.21.56 6.73 2.81 1.82 1.82 4.49 2.95 6.59 2.95 1.26 0 1.26 0-.7-3.93-1.12-2.1-1.82-4.07-1.68-4.21.14-.14 1.68-.56 3.37-1.12 3.23-.84 8.42-.98 13.75-.42 2.67.28 3.23.56 3.23 1.26 0 .84-.42.98-2.1.98-1.82 0-2.1.14-2.1 1.26 0 .98.56 1.4 2.95 2.38 4.07 1.68 4.21 1.82 4.35 4.63l.14 2.38 7.15 2.67c5.47 1.96 7.15 2.81 7.15 3.51s-.42.98-2.1.98h-2.1l.84 1.26c.98 1.54.84 1.54-2.67.56-3.23-.98-3.93-.98-3.93 0 0 .56 3.09 3.51 5.75 5.33.14.14 0 .42-.42.7-.42.42-1.54.14-4.07-.98l-3.51-1.68-3.79 2.95-3.79 2.95-.42-3.51c-.7-5.61-1.26-7.15-3.65-9.54-3.51-3.51-4.21-2.38-1.12 1.82 2.67 3.79 2.52 7.72-.42 10.24-3.23 3.24-9.82 4.64-15.01 3.24z"/><path id="XMLID_149_" class="st1" d="M253.21 182.94c0-.14.28-1.12.7-2.1.7-1.54 1.12-1.96 4.07-2.81l3.37-.98-3.09-2.1-3.09-2.1 2.24-.14c3.09-.28 7.57 1.26 9.82 3.09l1.82 1.68-4.77 2.52c-3.65 1.96-5.47 2.67-7.86 2.81-1.94.41-3.21.27-3.21.13z"/><path id="XMLID_150_" class="st1" d="M186.44 201.17c.28-17.39.56-20.48 2.67-28.9 1.4-5.47 5.19-12.48 6.31-11.36.14.14-1.12 8.56-2.67 18.8-1.82 11.78-2.81 19.36-2.52 20.62.98 7.29 1.68 13.47 1.4 14.73-.28 1.4-1.68 2.52-3.93 3.09l-1.54.42.28-17.4z"/><path id="XMLID_151_" class="st1" d="M211.13 256.44c-.98-4.35-3.09-7.57-10.52-15.71l-4.35-4.77v-6.03c0-4.91.14-6.03.7-6.03 1.12 0 2.67 1.82 5.05 5.89 2.95 5.19 6.73 7.72 11.08 7.72 1.26 0 1.26.14 1.54 5.05.28 4.49.56 5.61 2.24 9.12 1.12 2.24 1.82 4.07 1.68 4.21-.42.28-6.03 1.96-6.59 1.96-.27-.01-.69-.57-.83-1.41z"/><path id="XMLID_152_" class="st1" d="M185.04 236.1c-.56-.56-.42-2.67.14-3.79.42-.7.28-1.68-.28-3.23-.42-1.26-.56-2.38-.42-2.52.28-.14 1.82-.7 3.65-1.12l3.23-.84v1.26c0 1.12-.28 1.26-1.82 1.26-1.26 0-1.82.28-1.82.84 0 .56.7.84 2.81.84 2.52 0 2.81.14 2.81.98 0 .7-.7 1.4-2.24 2.1l-2.24.98 1.68.42c1.26.28 1.68.7 1.68 1.54 0 .7-.42 1.26-.84 1.54-.73.16-5.92.16-6.34-.26z"/><path id="XMLID_153_" class="st1" d="M174.1 230.63c-.56-.7-.84-2.24-.84-4.07 0-4.77 2.67-7.29 8-7.29s4.77 1.4 5.05-14.45c.28-20.62.98-27.63 4.07-36.19 1.82-5.33 6.03-10.38 5.33-6.45-.14.84-1.26 8.28-2.52 16.55-2.38 16.27-2.67 21.74-1.54 30.58.56 5.05.56 5.61-.28 6.73-.56.7-1.82 1.54-2.81 1.96-1.68.56-1.26.7 3.79.7 5.47 0 5.61 0 5.61 1.26 0 1.12-.28 1.26-8.56 2.24-7.15.84-8.98 1.26-10.94 2.52-2.38 1.4-2.38 1.4-2.38 4.21-.3 2.96-.72 3.52-1.98 1.7z"/><path id="XMLID_154_" class="st1" d="M294.17 281.83c.56-.56 2.24-1.96 3.93-3.09 3.51-2.38 4.91-3.93 5.61-6.17 1.4-4.21.42-8.56-3.79-17.25-2.38-4.91-2.38-4.91-2.38-10.38s0-5.61 1.68-7.86c3.65-5.05 9.12-9.4 11.78-9.4 2.1 0 4.91 1.12 5.61 2.24 1.12 1.82 1.54 4.49.7 4.49-1.26 0-4.21 3.23-5.61 6.31-1.26 2.52-1.4 3.51-1.4 8.84 0 6.31 0 6.59 3.37 12.34l1.26 2.1-2.38 2.95c-2.95 3.51-3.09 5.05-.84 8.14l1.54 2.24-2.1 2.38c-1.12 1.26-2.67 2.52-3.37 2.81-1.96.56-6.59.56-6.87 0-.14-.28-1.12-.28-2.52 0-1.26.28-3.09.42-3.93.42-1.27.01-1.27.01-.29-1.11z"/><path id="XMLID_155_" class="st1" d="M185.46 249.01c-.14-.28.14-1.4.7-2.67 1.26-2.95.98-3.79-1.4-3.51-1.68.28-1.82.28-1.4-1.12.14-.84.56-1.54.98-1.82.84-.56 5.05-.42 7.29.14 1.54.42 1.96.84 1.96 1.82 0 1.12-.28 1.26-2.1 1.26h-2.1v6.18h-1.82c-.99.28-1.83 0-2.11-.28z"/><path id="XMLID_156_" class="st1" d="M223.62 213.1c.14-1.12.42-2.38.56-2.81.28-.84 3.79-3.37 4.21-2.95.14.14.14 1.26-.14 2.52-.42 2.38-1.68 4.21-3.93 4.77-.98.43-1.12.43-.7-1.53z"/><path id="XMLID_157_" class="st1" d="M231.33 212.96c0-3.09.14-3.93.98-4.77.42-.56 1.12-.84 2.95-1.26l.28-.14v1.68c0 2.52-.28 3.37-1.26 4.49-.56.56-2.52 1.96-2.81 1.96 0-.14-.14-.98-.14-1.96z"/><path id="XMLID_158_" class="st1" d="M239.19 211.41c-.14-.28-.42-.56-.56-.56-.28 0-.28-.14-.14-1.68.14-1.82.28-2.52.98-3.51.42-.56 1.96-1.96 2.1-1.96 0 0 .28.28.42.56.14.28.42.56.56.56.14 0 .14.14.14 1.26 0 1.4-.28 2.67-.7 3.37-.28.56-1.26 1.54-2.1 2.1l-.42.28-.28-.42z"/><path id="XMLID_159_" class="st1" d="M247.32 208.61c-1.82-.56-1.82-.56-1.96-3.65v-2.24l.84.14c1.12.28 1.82.56 2.1 1.12.14.28.14.84.28 2.67v2.24c-.13 0-.7-.14-1.26-.28z"/><path id="XMLID_160_" class="st1" d="M252.51 205.24c-1.26-.84-1.26-.56-1.12-2.67 0-.98.14-1.82.14-1.82s1.26.7 1.82 1.12c.28.14.28.28.28.7 0 .98-.14 3.09-.28 3.09 0 .14-.42-.14-.84-.42z"/><path id="XMLID_161_" class="st1" d="M254.48 199.35c0-.84 0-1.54.14-1.54s1.96 2.67 1.96 2.81c0 0-.42.14-.98.14h-1.12v-1.41z"/><path id="XMLID_162_" class="st1" d="M261.35 209.03c-1.26-.84-2.1-1.68-2.38-2.52-.28-.56-.28-.84-.28-1.96v-1.4l.42-.7c.28-.42.42-.7.56-.7s.56.28.98.7c1.82 1.12 1.96 1.54 1.96 5.05 0 1.26 0 2.38-.14 2.38 0-.01-.56-.43-1.12-.85z"/><path id="XMLID_163_" class="st1" d="M265.84 202.58c-2.38-.7-3.23-2.1-3.37-5.05 0-1.54.14-1.96.7-2.24.42-.14 2.24-.7 2.38-.56 0 0 .56 1.96.7 2.52.14.42.14 1.54.28 3.09.15 2.8.15 2.52-.69 2.24z"/><path id="XMLID_164_" class="st1" d="M255.04 212.82c-.84-1.12-1.54-1.96-1.54-2.1 0 0 .14-.42.28-.7.14-.28.42-.84.42-1.12.14-.42.28-.7.42-.7.28-.14 2.67-.56 2.81-.42 0 0-.14 1.54-.42 3.37-.28 1.82-.42 3.37-.42 3.51 0 .14 0 .14-.14.14.13-.02-.57-.86-1.41-1.98z"/><path id="XMLID_165_" class="st1" d="M247.32 220.25c-.14-.42-.28-.98-.56-1.4-.28-.56-.28-.98-.28-1.96s0-1.26.56-2.67c.28-.98.56-1.4.7-1.4.28 0 1.82.42 2.24.56.42.28.7.7.7 1.54 0 1.68-.84 3.51-2.67 5.61l-.42.42-.27-.7z"/><path id="XMLID_166_" class="st1" d="M240.59 223.34c-1.12-.56-1.12-.7-1.12-3.93v-2.52l.7-.28c.42-.14 1.12-.42 1.54-.56l.84-.28.42.56c.14.28.42.56.56.56.14 0 .14.14.14.7-.14 1.4-.14 1.54-.84 3.23-.42.84-.84 1.96-.98 2.38-.14.42-.28.7-.28.7-.14 0-.56-.28-.98-.56z"/><path id="XMLID_167_" class="st1" d="M231.47 223.76c0-3.09.14-3.51.56-4.21.42-.56 1.54-.84 3.51-.84 1.26 0 1.26-.14.7 1.4-.42 1.26-.84 2.24-1.68 3.23-.7.98-2.95 3.51-3.09 3.51-.14-.01-.14-1.27 0-3.09z"/><path id="XMLID_168_" class="st1" d="M221.23 229.37c-.14-.28-.28-.84-.42-1.26-.42-1.26-.56-2.1-.42-3.79 0-1.54 0-1.68.42-2.38.84-1.54 3.09-2.81 6.03-3.09l.7-.14v2.52c0 2.81-.14 3.65-.56 4.63-.42.84-1.96 2.38-2.95 2.95-.84.42-2.24.98-2.52.98 0 0-.14-.14-.28-.42z"/><path id="XMLID_169_" class="st1" d="m229.93 196.4-2.38-.42-.98.28c-.56.14-.98.28-.98.28-.14-.14-1.12-2.95-1.12-2.95h3.37c2.81 0 3.37.14 3.65.28.42.28.56.7.84 1.68.14.42.28.84.28.98-.02.43.26.43-2.68-.13z"/><path id="XMLID_170_" class="st1" d="M228.25 190.65c-3.51-.42-5.47-.98-10.52-2.95-1.82-.7-3.79-1.54-4.35-1.68-.56-.14-1.12-.28-1.12-.42 0 0 .98-2.95 1.12-2.95 0 0 .98.42 2.1.98 4.35 2.1 6.73 2.95 12.76 4.49l2.38.56v1.96h-.98c-.55.15-1.11.15-1.39.01z"/><path id="XMLID_171_" class="st1" d="M209.45 197.38c-2.95-.28-5.61-.56-5.75-.56h-.28v-2.24h.56c.28 0 3.37.28 6.73.56 3.51.28 6.31.56 6.45.56.28 0 .28 0-.14.84-.28.42-.56.84-.7.84-.42.57-1.4.57-6.87 0z"/><path id="XMLID_172_" class="st1" d="M253.35 80.4c-4.91-1.82-6.87-4.63-7.01-9.82 0-3.93.84-5.33 4.63-8 3.09-2.1 6.17-2.24 9.68-.56 2.81 1.4 4.49 3.79 4.91 6.87.7 4.91-.98 8.98-4.63 10.66-1.96 1.13-5.75 1.55-7.58.85z"/><path id="XMLID_173_" class="st1" d="M251.81 51.78c-3.79-2.95-4.35-3.65-4.21-4.77.28-2.24 2.81-9.12 4.07-11.08 1.26-1.96 4.77-5.61 5.19-5.19.7.7 4.49 7.43 5.47 9.68.7 1.4 1.26 4.07 1.4 5.75l.28 3.09-3.51 2.95c-1.96 1.68-3.65 2.95-3.79 2.95-.27-.01-2.37-1.56-4.9-3.38z"/><path id="XMLID_174_" class="st1" d="M267.52 55.29c0-4.77.14-5.19 1.4-6.59 2.24-2.38 7.01-4.07 14.03-4.77l3.09-.28-.28 2.52c-.84 6.17-4.07 12.76-6.87 13.75-.7.28-3.51.56-6.31.56h-4.91v-5.19h-.15z"/><path id="XMLID_175_" class="st1" d="m276.22 75.21-4.07-4.07 2.95-2.95c4.35-4.21 4.91-4.63 7.72-4.07 1.26.28 4.63 1.68 7.57 3.09 4.63 2.38 5.19 2.81 4.91 3.79-.42 1.54-2.81 3.93-4.91 5.05-1.96.98-8.56 3.09-9.54 3.09-.28.13-2.39-1.69-4.63-3.93z"/><path id="XMLID_176_" class="st1" d="M275.66 98.21c-3.79-1.54-6.87-2.95-6.87-2.95-.14-.14-.42-2.38-.7-5.05-.28-2.67-.7-5.75-.84-6.73l-.28-1.82 3.51.28c8.98.84 8.28.56 10.1 4.07.98 1.68 1.96 4.35 2.38 5.89.98 3.51.98 9.26.14 9.12-.43.14-3.79-1.27-7.44-2.81z"/><path id="XMLID_177_" class="st1" d="M253.35 108.31c-2.24-2.52-4.49-6.59-4.91-9.12-.28-1.96-.14-2.24 2.52-5.61 1.54-1.96 3.37-4.35 3.79-5.33.42-.98.98-1.82 1.26-1.82s2.24 2.1 4.63 4.77l4.21 4.77-.84 2.67c-2.94 10.23-6.87 13.74-10.66 9.67z"/><path id="XMLID_178_" class="st1" d="M227.97 100.32c-.14-.42 1.12-4.49 3.09-9.12l3.37-8.28 3.37-.28c1.82-.14 4.35-.42 5.47-.7l2.1-.28-.28 5.19c-.14 2.81-.42 5.89-.42 6.73 0 1.54-.14 1.68-7.72 4.63-4.21 1.68-7.86 2.95-8.14 2.95-.28 0-.7-.42-.84-.84z"/><path id="XMLID_179_" class="st1" d="M226.14 78.71c-3.09-.84-9.82-6.31-9.82-7.72 0-.14 3.23-1.96 7.01-3.93l7.01-3.65 4.21 3.79c4.91 4.49 6.17 6.17 4.49 6.17-.42 0-1.82 1.26-3.23 2.81-2.38 2.81-2.52 2.81-5.33 2.81-1.53.14-3.5 0-4.34-.28z"/><path id="XMLID_180_" class="st1" d="M231.19 59.5c-.14-.56-.98-2.52-1.96-4.63-1.54-3.51-2.52-9.54-1.68-11.5.28-.56 1.82-.28 8.28 1.96 4.35 1.4 8 2.67 8.14 2.67 0 0 .28 2.81.42 6.17l.42 6.17h-6.59c-6.05 0-6.75 0-7.03-.84z"/><path id="XMLID_181_" class="st1" d="M241.99 44.35c-3.09-1.12-3.93-2.67-3.65-6.03.14-1.54.56-2.95.84-3.23.7-.7 3.93.42 5.33 1.96.98 1.12 1.12 1.68.98 4.21-.14 1.54-.42 3.09-.7 3.37-.27.28-1.53.14-2.8-.28z"/><path id="XMLID_182_" class="st1" d="M245.64 34.25c-2.38-1.26-2.38-1.26-1.68-2.52.42-.84 1.12-1.12 2.67-1.12 1.12 0 2.52-.28 3.09-.56.98-.56.98-.42.7.98-.42 1.54-1.82 3.93-2.67 4.21-.15-.01-1.13-.43-2.11-.99z"/><path id="XMLID_183_" class="st1" d="M262.19 33.4c-1.4-2.24-.84-2.81 2.81-2.81 1.96 0 2.52.14 2.52.84 0 1.4-.98 2.67-2.52 3.23-1.55.57-1.69.43-2.81-1.26z"/><path id="XMLID_184_" class="st1" d="M276.36 38.45c0-1.54.28-2.67.56-2.67 1.68 0 5.75 3.37 5.75 4.77 0 .28-1.4.42-3.09.42h-3.09v-2.52h-.13z"/><path id="XMLID_185_" class="st1" d="M294.03 65.95c-1.12-.56-1.96-1.26-1.96-1.4 0-.56 3.79-3.09 4.21-2.81.56.28.56 5.47 0 5.33-.14 0-1.12-.42-2.25-1.12z"/><path id="XMLID_186_" class="st1" d="M289.55 51.5c-.84-.28-1.12-.84-1.12-2.1 0-1.26.14-1.54 1.26-1.54.98 0 1.26.42 1.54 1.68.56 2.8.56 2.8-1.68 1.96z"/><path id="XMLID_187_" class="st1" d="M286.32 94.14v-2.38h4.48l-.42 1.68c-.28.98-.42 1.68-.42 1.82s-3.23 1.26-3.51 1.26c.01-.13-.13-1.11-.13-2.38z"/><path id="XMLID_188_" class="st1" d="M293.61 80.54c-.84-.98-1.4-1.96-1.4-2.1s.98-.7 2.24-1.26c1.26-.56 2.24-1.12 2.24-.98 0 .28-1.54 6.17-1.68 6.17.15-.01-.55-.85-1.4-1.83z"/><path id="XMLID_189_" class="st1" d="M276.5 104.1v-1.12h3.09v2.1h-3.09z"/><path id="XMLID_190_" class="st1" d="M262.05 110.42c1.12-1.96 2.1-2.67 3.23-2.24.42.14.56.42.98 1.12.56 1.12.7.98-2.1 1.54-2.95.56-2.81.7-2.11-.42z"/><path id="XMLID_191_" class="st1" d="M246.48 110.84c0-.7.42-1.96.7-2.24.42-.42 1.12-.56 1.82-.42.7.14.98.56 1.12 1.68.14.42.28.98.28 1.12 0 .28-.14.28-1.96.28-1.96-.14-1.96-.14-1.96-.42z"/><path id="XMLID_192_" class="st1" d="m234 105.65-1.54-.42v-2.24h3.08v3.08c0 .14-.7-.14-1.54-.42z"/><path id="XMLID_193_" class="st1" d="M223.06 94.84c-.98-1.4-1.82-2.52-1.82-2.67 0 0 1.26-.14 2.67-.14 1.96 0 2.52 0 2.52.14s-.28.98-.56 1.96-.56 2.1-.7 2.52c-.14.42-.28.7-.28.7.13.02-.85-1.1-1.83-2.51z"/><path id="XMLID_194_" class="st1" d="M216.6 82.78c-.28-1.4-1.12-5.61-1.12-5.75 0 0 .98.56 1.96 1.4 1.26.98 1.82 1.54 1.82 1.68 0 .14-.14.84-.42 1.54l-.42 1.26h-.98c-.7.15-.84.15-.84-.13z"/><path id="XMLID_195_" class="st1" d="M215.2 66.65c0-.14.28-1.26.56-2.52s.42-2.24.42-2.24l3.51 2.81c0 .14-4.35 2.24-4.49 2.24v-.29z"/><path id="XMLID_196_" class="st1" d="M219.97 51.78c0-.14 2.67-4.91 2.81-5.19 0 0 .42.84.84 2.1.42 1.26.7 2.24.7 2.24s-.84.14-1.96.42c-.98.14-1.96.42-2.1.42-.15.15-.29.15-.29.01z"/><path id="XMLID_197_" class="st1" d="m230.21 40.28-.56-.98 2.1-1.26c3.37-1.96 3.79-2.24 3.79-1.96 0 .14-.28 1.26-.56 2.52l-.56 2.38h-.84c-.42 0-1.26 0-1.82.14l-.98.14-.57-.98z"/><path id="XMLID_198_" class="st1" d="M266.4 44.91c0-.14-.28-1.26-.56-2.52l-.42-2.39.84-1.12c1.68-2.52 3.51-3.65 5.61-3.79h.7l.42 1.12c1.54 4.77.42 7.43-3.93 8.42-1.68.42-2.52.42-2.66.28z"/><path id="XMLID_199_" class="st1" d="M285.76 61.74c-1.96-.56-2.38-.84-2.38-.98s.84-1.4 1.68-2.95l1.68-2.81h2.1c1.68 0 2.24.14 3.37.42.7.28 1.4.42 1.54.56.14.14-.56 2.67-1.12 3.65-.56 1.12-1.4 1.82-2.38 2.1-1.27.43-3.09.43-4.49.01z"/><path id="XMLID_200_" class="st1" d="M283.93 85.03c-.98-1.96-1.54-3.09-1.4-3.09.14 0 1.54-.28 3.09-.56l2.95-.42 1.4.98c1.96 1.4 2.52 2.52 2.52 5.19v.98h-7.02l-1.54-3.08z"/><path id="XMLID_201_" class="st1" d="M269.91 107.33c-1.82-.98-2.81-1.68-3.09-2.38-.28-.7-.28-2.52.14-3.93.14-.7.42-1.54.42-2.1 0-.42.14-.84.28-.84.42 0 6.45 3.09 6.45 3.23-.14.56-2.38 6.73-2.38 6.73-.28.13-.98-.29-1.82-.71z"/><path id="XMLID_202_" class="st1" d="M240.45 107.75c-.14-.84-.98-6.73-.84-6.73.14-.14 5.61-.98 5.75-.84.28.14 1.4 3.93 1.26 4.07-.14.14-.56.7-.98 1.4-1.26 1.82-1.54 2.1-3.37 2.38-1.54.14-1.82.14-1.82-.28z"/><path id="XMLID_203_" class="st1" d="M224.18 89.09c-.98-.14-3.93-.98-4.21-1.26-.14-.14 3.23-6.59 3.51-6.59.14 0 5.89 1.68 6.03 1.82.14.14-.56 2.1-.98 3.09-.84 1.82-1.82 2.81-2.81 2.95-.28-.01-.98-.01-1.54-.01z"/><path id="XMLID_204_" class="st1" d="M221.79 61.6c-1.12-.56-2.81-2.1-3.23-2.95-.28-.7-.28-.7 0-1.26.14-.28.56-.84.98-1.12.84-.56 2.67-1.26 4.21-1.4l1.12-.14.84.98c2.67 2.67 3.23 5.47 1.26 6.03-.28.14-1.4.14-2.38.14-1.67.14-1.81.14-2.8-.28z"/><path id="XMLID_205_" class="st1" d="M241.85 68.61c-2.95-.98-4.35-2.38-5.19-4.91-.14-.42-.28-.84-.14-.84.42 0 7.86.98 8 1.12 0 0-.14 1.26-.42 2.52-.56 2.81-.42 2.67-2.25 2.11z"/><path id="XMLID_206_" class="st1" d="m248.45 59.92-.56-1.68c-.42-1.54-.42-1.68-.42-3.93v-2.38l.7.56c2.24 1.54 3.93 3.23 4.21 4.21.42.98-.28 1.82-1.96 2.67-1.55.55-1.97.69-1.97.55z"/><path id="XMLID_207_" class="st1" d="M261.77 58.51c-1.12-.28-2.1-.56-2.1-.56 0-.14 1.54-2.67 1.96-3.37.42-.56 2.24-1.68 2.81-1.68.14 0 .14.56.14 3.09v3.09h-.28c-.28-.15-1.41-.29-2.53-.57z"/><path id="XMLID_208_" class="st1" d="M268.36 67.49c-.14-.28-.28-1.26-.56-2.1l-.42-1.4 2.38-.42c4.07-.7 4.49-.84 4.63-.7 0 0 0 .42-.14.84-.84 2.52-1.68 3.23-4.21 3.93-.56.14-1.12.28-1.26.42-.14-.01-.28-.01-.42-.57z"/><path id="XMLID_209_" class="st1" d="M271.03 78.71c-1.96-.28-3.23-.7-3.23-.7 0-.14.84-3.79.98-3.93 0 0 5.89 5.05 5.89 5.19-.13.14-.27 0-3.64-.56z"/><path id="XMLID_210_" class="st1" d="M261.77 87.41c-1.26-1.68-2.24-3.09-2.38-3.23 0-.14.7-.56 1.96-1.12 1.12-.56 2.1-.98 2.1-.98s.28 1.68.42 3.65c.14 1.96.28 3.79.28 4.21v.56c-.13-.14-1.12-1.41-2.38-3.09z"/><path id="XMLID_211_" class="st1" d="M248.02 91.76c0-.42.14-2.52.28-4.77.14-2.24.28-4.07.28-4.21 0 0 5.47 1.4 5.47 1.54.14 0-5.89 8.14-6.03 8.14 0 0-.14-.28 0-.7z"/><path id="XMLID_212_" class="st1" d="M239.89 78.99c-.84 0-1.54-.14-1.68-.14-.14 0 4.77-4.63 5.05-4.77 0 0 .42.84.7 1.96l.56 1.96-.42.28c-.84.71-1.69.85-4.21.71z"/><path id="XMLID_213_" class="st1" d="M213.38 507.39v-1.68h37.31c20.62 0 37.45.14 37.59.14.14 0 .42.56.7.98.56.98.56.98-.7 1.54l-.7.28h-74.34v-1.26h.14z"/><path id="XMLID_214_" class="st1" d="M218.43 500.8v-2.1h67.2v1.4c-.14 1.4-.42 1.96-1.12 2.38-.42.28-.56.28-33.24.28h-32.68v-1.96h-.16z"/><path id="XMLID_215_" class="st1" d="M197.39 493.92v-1.12H305.68V494.91H197.39z"/><path id="XMLID_216_" class="st1" d="M204.4 486.91v-2.1h47.13c31.84 0 47.27 0 47.69.14.98.28 1.26.98 1.4 3.09v.84H204.4v-1.97z"/><path id="XMLID_217_" class="st1" d="M174.66 481.72c-.28 0-.56-.42-.84-.98-.28-.42-.42-.84-.42-.98 0 0 35.21-.14 78.13-.14s78.13 0 78.13.14c0 .28-.84 1.68-1.12 1.82-.28.28-153.32.28-153.88.14z"/><path id="XMLID_218_" class="st1" d="M178.31 473.86v-2.1h146.44v4.07H178.31z"/><path id="XMLID_219_" class="st1" d="M150.25 467.83v-1.12h202.56V468.82H150.25z"/><path id="XMLID_220_" class="st1" d="M153.34 461.24v-1.54h197.37v3.08H153.34z"/><path id="XMLID_221_" class="st1" d="M123.6 449.6c-.28-.14-.84-.42-.98-.7-.56-.56-1.54-3.79-1.4-3.93.14-.14 59.48-.14 132-.14l131.86.14-1.12 1.82c-.56.98-1.4 2.1-1.96 2.38l-.84.56H252.65c-70.69.15-128.63.01-129.05-.13z"/><path id="XMLID_222_" class="st1" d="M122.06 454.79v-1.26H381.85v2.38H122.06z"/><path id="XMLID_227_" class="st1" d="M86.01 411.3c0-.14-.84-2.52-1.82-5.33-1.96-5.89-2.38-8.42-2.1-13.19.14-3.51.7-5.47 2.52-9.96 2.24-5.33 2.24-5.47 2.38-12.34.14-5.05.28-6.31.7-7.86 2.1-7.01 6.87-11.92 13.47-13.61 3.93-.98 8.56-.7 11.22.98 1.4.84 4.77 4.07 4.77 4.63 0 .28-.56 2.67-1.26 5.33s-1.26 5.05-1.26 5.19.14.42.42.56c.42.28 1.96-.42 8.84-3.51 4.63-2.1 8.56-3.79 8.7-3.93.14-.14-.28-.56-.98-.98l-1.26-.84-5.33 2.1c-2.95 1.12-5.47 2.1-5.61 2.1-.14 0 0-.56.56-1.26l.98-1.26.14-2.95c.14-2.67 0-3.09-.42-3.51-.56-.56-1.4-2.52-1.54-2.95 0-.28.7-.28 2.52-.28 2.95 0 2.81-.14 2.1 2.67-.28.98-.42 1.96-.42 1.96 0 .42 1.54-.14 4.77-1.68 3.65-1.68 5.05-2.1 8.7-2.1 2.81 0 14.31.7 14.45.84 0 0-.28 2.81-.84 6.03-.56 3.23-1.4 8.7-1.96 12.06-1.12 6.73-1.26 7.72-2.24 9.68-1.68 3.51-3.37 5.61-8.14 10.52-1.68 1.68-3.37 3.65-3.79 4.35-.56.7-.98 1.12-1.26.98-.84-.28-15.71-3.51-15.99-3.51-.14 0-.14.14 0 .56.28.84.28 4.49-.14 5.75-.42 1.54-1.54 2.95-3.79 4.91-3.09 2.67-4.21 4.77-4.77 8.14l-.14 1.12-1.54-.14-1.54-.14-.42-1.26c-.84-2.24-.56-3.37 3.09-11.36.7-1.68 1.26-3.09 1.12-3.09-.14 0-1.26.14-2.52.28-2.95.42-5.89 1.96-8.14 3.93-.84.84-2.67 2.81-3.93 4.35-3.37 4.21-5.05 6.17-6.59 7.15-1.43 1.29-1.57 1.43-1.71.87zM94 383.81c.56-.28 1.26-.84 1.68-1.4.56-.84 1.4-4.35 1.12-4.49-.14-.14-.84 0-1.54.14-.98.14-1.54.56-2.1.98-.7.7-.7.84-.84 3.09 0 2.52 0 2.52 1.68 1.68zm33.53-6.73c.28-.7.42-1.26.42-1.4-.14-.14-1.12-.42-2.38-.84l-2.24-.7 1.68 2.24c.98 1.26 1.82 2.24 1.82 2.1.14-.14.42-.7.7-1.4zm8.98-4.63c.14-.56.42-1.12.42-1.26.14-.28-1.12-.7-4.35-1.82-2.52-.84-4.63-1.4-4.63-1.4-.14.14 2.52 2.67 4.07 3.65 1.4.98 3.37 1.82 4.07 1.82 0 .13.28-.43.42-.99z"/><path id="XMLID_228_" class="st1" d="M102.56 462.5c-6.45-1.82-11.64-8.84-13.75-18.8-.42-2.24-.56-3.09-.56-8.56 0-3.37.14-8.56.14-11.5l.14-5.33 6.87-3.37c3.79-1.82 6.87-3.37 6.87-3.23 0 .14.28.7.42 1.54.56 2.1.56 7.01-.14 10.66-.28 1.54-1.12 5.47-2.1 8.7-1.82 7.01-2.24 9.12-2.24 11.92 0 4.91 1.82 7.57 6.87 10.1l1.96.98 1.82-1.12c.98-.56 1.82-1.12 1.82-1.26 0-.14-.56-.28-1.26-.56-1.68-.42-2.38-.98-2.95-1.96-.7-1.26-.56-2.52.28-3.37 1.82-1.68 6.73-2.24 9.12-.98.98.56 1.26.84 2.24 2.95l1.12 2.38-.7 2.67c-.42 1.4-.98 3.23-1.4 4.07-.84 1.82-2.81 3.79-4.07 4.21-1.1.28-9.1.28-10.5-.14z"/><path id="XMLID_229_" class="st1" d="M88.25 414.53c0-.14 2.95-3.51 6.59-7.43 5.75-6.45 6.59-7.29 7.01-7.01.56.28.56.42 0 2.52-1.54 5.33-4.21 8.98-8 10.8-1.95.98-5.74 1.68-5.6 1.12z"/><path id="XMLID_235_" class="st1" d="M396.43 410.04c-.56-2.95-1.68-4.63-5.19-8.28-3.79-3.93-4.35-4.77-4.49-7.72 0-1.12 0-2.38.14-2.95l.28-.84-7.86 1.82c-4.35.98-8 1.82-8.28 1.82-.14 0-.84-.56-1.4-1.4-.56-.7-2.52-3.09-4.35-5.05-4.91-5.33-6.73-8.28-8.42-13.47-1.12-3.37-1.4-5.33-1.4-11.08 0-5.61-.28-7.29-1.68-10.8-.56-1.26-1.12-2.95-1.12-3.65l-.14-1.26.7.14c.42.14 6.45 1.12 13.61 2.38 7.15 1.26 13.05 2.38 13.33 2.38.42.14.42-.14.42-2.38v-2.52h4.2l-.14.7c-.14.42-.56 1.54-.98 2.52-1.12 2.67-1.12 4.63.14 7.15.56.98.84 1.96.84 1.96 0 .14-2.24-.7-4.21-1.54-2.81-1.26-5.89-1.82-8.7-1.26-.98.14-.7.28 7.43 4.35l8.42 4.21.42-.56c1.68-1.96 1.82-3.23.56-5.89-.98-2.1-1.26-4.07-.84-5.75.56-2.1 3.37-4.21 6.73-5.05 2.1-.56 6.31-.56 8.42 0 5.33 1.4 9.96 5.61 12.2 11.08 1.12 2.95 1.54 5.47 1.82 11.5.28 6.45.28 6.59 2.67 12.48 1.96 4.91 2.24 6.59 2.1 12.34-.14 4.07-.14 4.77-.84 7.29-.98 3.37-2.95 8.84-3.23 8.84-.7 0-3.79-3.09-7.29-7.29-5.05-6.17-8-8.28-12.48-9.26-.98-.14-1.96-.42-1.96-.42s-.14.42 0 .84c.28 1.82.98 3.65 2.1 6.31.7 1.54 1.4 3.09 1.4 3.51.28 1.26.14 3.37-.14 4.07-.28.7-2.1 1.96-2.52 1.96.16.45-.13-.39-.27-1.23zm15.15-21.46v-2.81l-2.24-.84c-1.26-.42-2.24-.84-2.24-.84s.14 1.26.56 2.81l.56 2.81 1.68.98c.98.56 1.68.98 1.68.98v-3.09zm-23.56 1.12c0-.14-.14-.14-.28-.14-.14.14-.28.14-.28.28 0 0 .14.14.28.14s.28-.14.28-.28zm-8.7-14.31c.98-1.4 1.82-2.52 1.82-2.52s-4.77 1.82-4.91 1.96c-.14.14.28 1.96.7 2.95.29.7.15.84 2.39-2.39zm-5.75-6.17c.84-.98 1.26-1.4.98-1.4-.98.28-6.59 1.96-6.59 1.96s.14.84.42 1.82l.56 1.82 1.54-1.4c.99-.7 2.25-2.1 3.09-2.8z"/><path id="XMLID_236_" class="st1" d="M412.57 414.39c-4.63-1.12-8-4.63-9.96-10.52-.7-2.1-.98-3.37-.84-3.37.98 0 4.35 2.81 7.01 6.17 1.68 1.96 5.47 7.01 6.03 7.86.28.42-.42.28-2.24-.14z"/><path id="XMLID_237_" class="st1" d="M391.52 464.19c-2.52-.98-4.21-2.81-5.19-5.33-.42-1.12-.56-1.82-.56-4.77 0-3.09 0-3.51.56-4.35.56-1.12 2.38-2.38 3.93-2.81 2.38-.7 6.03.42 7.15 2.1.42.7.56 1.12.42 2.24 0 .84-.28 1.54-.42 1.82-.14.14-.98.42-1.82.56-.84.14-1.4.28-1.54.28-.14.14.42 1.96.84 2.24.7.56 3.79.42 5.05-.14 1.4-.7 3.09-2.67 4.07-4.63 2.24-4.63 2.1-8.7-.42-17.53-2.24-7.57-2.81-10.94-2.81-15.85 0-2.95.42-5.61.98-6.17.14-.14 3.23 1.54 6.87 3.65l6.73 3.79.14 1.82c.28 2.67.14 10.94-.14 15.57-.56 9.26-1.68 15.15-4.07 20.06-2.1 4.35-5.47 7.15-9.4 8-.7.14-3.09.28-5.19.28-3.49-.27-3.91-.27-5.18-.83z"/><path id="XMLID_238_" class="st1" d="M94.14 343.13v-1.68h322.63v3.36H94.14z"/><path id="XMLID_241_" class="st1" d="M246.34 128.09c-17.25-2.38-33.24-14.31-41.94-31.56-4.21-8.42-6.17-16.55-6.17-26.37 0-15.29 5.47-28.05 17.25-39.7 23.71-23.57 57.65-23.71 81.08-.28 14.03 14.03 20.48 35.07 15.99 52.6-3.09 11.92-8 20.62-16.83 29.6-14.17 14.17-27.92 18.52-49.38 15.71zm21.18-15.15c18.66-4.91 32.12-22.44 32.12-41.8 0-31.42-33.1-53.58-60.74-40.54-21.74 10.24-31.84 33.67-23.85 55.13 4.91 12.91 17.67 24.97 29.6 27.91 5.62 1.12 16.7.84 22.87-.7z"/><path id="XMLID_244_" class="st1" d="M239.05 136.93c-11.78-3.23-20.9-8.7-30.3-18.24-10.38-10.38-16.69-21.6-19.36-34.65-5.33-25.25 7.01-54.85 29.32-69.72 12.62-8.42 18.94-10.1 38.72-10.1 18.94 0 23.29.98 33.67 7.72 12.91 8.42 23.85 22.86 29.18 38.29 3.79 11.08 4.63 27.07 1.96 37.03-5.61 21.74-23.29 40.82-44.75 48.25-8.56 2.96-29.89 3.8-38.44 1.42zm35.21-8.28c25.39-8.14 42.5-31.7 42.5-58.49 0-25.25-18.1-49.1-43.2-57.09-9.54-2.95-25.11-2.95-34.51 0-18.66 6.03-34.93 21.46-40.82 38.86-1.96 5.75-2.24 8.56-1.82 21.32.28 14.45.42 14.73 4.35 23 7.01 14.59 22.58 27.77 39.42 33.1 8.97 2.81 23.98 2.53 34.08-.7z"/><path id="XMLID_245_" class="st1" d="M102.14 338.22c0-1.82 6.87-9.96 10.38-12.34l3.51-2.38h140.13c138.17 0 140.13 0 143.5 2.1 3.09 1.82 9.68 10.52 9.68 12.76 0 .42-69.16.84-153.6.84-93-.14-153.6-.42-153.6-.98z"/></g></svg>