<svg data-name="Layer 1" xmlns="http://www.w3.org/2000/svg" viewBox="0 0 1000 1000"><path d="M848.67 413.13V401h-47v85.22h12.83V449.7h27.71v-12.09H814.5v-24.48Zm-57.85 30.52a44.22 44.22 0 1 0-43.75 43.75 44.21 44.21 0 0 0 43.75-43.75m-12.86 0a31.36 31.36 0 0 1-62.71 1.12v-1.11a31.36 31.36 0 0 1 62.71 0M660 453.76l30-52.72h-14.91l-21.56 38.07L632 401h-66.45v12.09h22.24v73.13h12.86v-73.09h22.23v-1.95l24.22 42.58v32.5H660Zm-117.42 32.5h12.82V401h-12.86Zm-52.21-63.91c0-7.4 5.34-11.85 12.18-11.85 5.81 0 9.88 3 13.24 8.8l9.84-6.24a25.37 25.37 0 0 0-22.86-13.62c-14.15 0-24.81 9.7-24.81 22.58 0 26 38.42 22 38.42 39.73 0 8-6.94 14.94-15.48 14.94-7.69 0-13.52-6.17-14.7-14.4l-11.89 3.06c2.83 13.72 13 22.52 26.81 22.52 15.52 0 27.67-11.82 27.67-27 0-26.13-38.42-23.91-38.42-38.52m-18.18 63.91-27.6-36.16c11.47-2.83 19.75-10.47 19.75-23.75 0-18-13.5-25.31-31.28-25.31h-17.58v85.22h12.86v-34.88h2.06l25.53 34.88Zm-40.56-47h-3.25v-26.13h3.25c8.38 0 19.89 1 19.89 13.08S440 439.3 431.59 439.3m-76.16 47h47v-12.12h-34.14V449.7H396v-12.09h-27.7v-24.48h34.17V401h-47Zm-45 1.61L348.62 401h-13.93l-25.07 56.77L285.24 401H271.3l37.11 86.83Zm-61.17-1.61h12.86V401H249.3Zm-19.44 1.61h2.07V401h-12.82v56.41l-54.83-58h-2.06v86.82H175V429.6Zm-81.62-33.35V401h-12.83v53.48c0 11.77-7.45 21.26-19.75 21.26s-19.76-9.49-19.76-21.26V401H83v53.48c0 19 14 33.29 32.62 33.29s32.62-14.32 32.62-33.29m127.83 79.34c0-6.5 4.9-10.35 11.88-10.35 5.81 0 9.87 2.67 13.24 8.49l9.83-6.24a25.36 25.36 0 0 0-22.85-13.63c-14.15 0-24.82 9.72-24.82 22.59 0 26.27 38.12 22.8 38.12 40.94 0 8-6.64 13.73-15.18 13.73-7.68 0-13.51-6.18-14.69-14.4l-11.9 3c2.84 13.73 13 22.52 26.81 22.52 15.52 0 27.68-11.81 27.68-27 0-25.56-38.12-24.28-38.12-39.71m348.16 0c0-6.5 4.9-10.35 11.87-10.35 5.82 0 9.87 2.67 13.25 8.49l9.83-6.24a25.37 25.37 0 0 0-22.86-13.63c-14.15 0-24.81 9.72-24.81 22.59 0 26.27 38.12 22.8 38.12 40.94 0 8-6.65 13.73-15.18 13.73-7.68 0-13.52-6.18-14.69-14.4l-11.91 3c2.84 13.73 13 22.52 26.82 22.52 15.52 0 27.67-11.81 27.67-27 0-25.56-38.11-24.28-38.11-39.71m222.28 5.3c0-17.94-13.81-25.3-31.59-25.3h-17.58V599h12.86v-34.92h2.06L837.79 599H854l-27.55-36.17c11.48-2.82 20.06-10.46 20.06-23.75M810.2 552v-26.18h3.25c8.39 0 19.89 1 19.89 13.09S821.84 552 813.45 552Zm-74.53 47h47v-12.13h-34.14v-24.48h27.7V550.3h-27.7v-24.48h34.17v-12.08h-47ZM204 599h47v-12.13h-34.15v-24.48h27.7V550.3h-27.7v-24.48H251v-12.08h-47Zm288.57 0h12.86v-85.26h-12.88Zm174.78-73.14h22.23V599h12.87v-73.18h22.22v-12.08h-57.34Zm-346.23 0h22.24V599h12.84v-73.18h22.23v-12.08H321.1ZM457 512.13l-28.7 63.19-28.7-63.19h-2.07L379.45 599h13.05l10.27-48.8 24.52 50.4h2.06l24.53-50.4 10.26 48.8h13.05l-18.1-86.83Zm-295.14 55.06L139 512.13h-2.07L114 567.19l-17.41-53.45H83l28.41 86.82h2.07L138 543.17l24.47 57.39h2.06l28.42-86.82H179.3Zm420.85 2.95-54.82-58h-2.06V599h12.86v-56.7l54.82 58.26h2.06v-86.82h-12.86Zm282.23-56.4v60.52l5.79-5.79V556h9.63v9.54l2.9 2.9 2.9-2.9V556h9.62v9.54l2.9 2.9 2.89-2.9V556h9.64v12.5l5.79 5.79v-60.55Zm15.42 36.42h-9.63v-12.42h9.63Zm0-18.22h-9.63v-12.42h9.63Zm15.42 18.22h-9.62v-12.42h9.62Zm0-18.22h-9.62v-12.42h9.62Zm15.43 18.22h-9.64v-12.42h9.64Zm0-18.22h-9.64v-12.42h9.64Z" style="fill:#491149"/></svg>